<?xml version="1.0" standalone="no"?>
<!DOCTYPE svg PUBLIC "-//W3C//DTD SVG 20010904//EN"
 "http://www.w3.org/TR/2001/REC-SVG-20010904/DTD/svg10.dtd">
<svg version="1.0" xmlns="http://www.w3.org/2000/svg"
 width="1920.000000pt" height="1280.000000pt" viewBox="0 0 1920.000000 1280.000000"
 preserveAspectRatio="xMidYMid meet">

<g transform="translate(0.000000,1280.000000) scale(0.100000,-0.100000)"
fill="#000000" stroke="none">
<path d="M0 8930 c0 -3486 2 -3870 15 -3870 20 0 67 -49 59 -62 -4 -6 -22 -16
-40 -24 l-34 -14 0 -424 c0 -413 1 -424 20 -429 11 -3 18 0 17 6 -3 17 63 47
105 47 27 0 40 -6 48 -19 18 -34 12 -60 -15 -67 -14 -3 -30 -15 -36 -25 -13
-26 -28 -24 -60 7 l-26 25 4 -25 c4 -19 1 -26 -10 -26 -9 0 -19 5 -22 10 -18
29 -25 -1 -25 -111 0 -116 1 -120 20 -114 16 5 19 3 13 -11 -4 -11 1 -22 15
-33 15 -11 19 -20 12 -31 -7 -12 -13 -11 -34 9 l-26 24 0 -1886 0 -1887 9600
0 9600 0 0 6400 0 6400 -5480 0 c-4847 0 -5480 -2 -5480 -15 0 -8 8 -15 18
-15 34 -1 -28 -40 -64 -40 -38 0 -42 7 -17 25 15 11 15 13 -5 19 -12 4 -22 12
-22 17 0 5 -43 9 -95 9 -105 0 -159 -17 -153 -48 3 -14 14 -17 53 -15 32 2 45
0 36 -6 -16 -10 -6 -31 15 -31 8 0 14 -4 14 -9 0 -17 -63 -42 -119 -48 -52 -6
-53 -5 -42 15 9 17 8 23 -5 30 -16 9 -38 87 -29 103 4 5 -1480 9 -3909 9
l-3916 0 0 -3870z m7733 3829 c-6 -6 -9 -18 -6 -25 3 -8 1 -14 -5 -14 -6 0
-12 -23 -14 -50 -2 -43 0 -50 15 -50 27 0 4 -36 -30 -47 -43 -14 -64 -6 -57
23 3 13 2 24 -4 24 -9 0 -15 21 -29 99 l-5 33 26 -17 c35 -23 70 -13 86 25 9
22 16 28 23 21 8 -8 8 -14 0 -22z m-232 -30 c32 -45 16 -65 -79 -100 -50 -18
-39 -45 17 -42 38 2 42 0 38 -18 -4 -14 0 -19 14 -19 29 0 23 -16 -16 -39 -40
-23 -97 -36 -121 -27 -14 5 -14 9 -3 22 11 14 10 18 -6 30 -10 8 -24 14 -31
14 -6 0 -17 7 -24 15 -18 22 -30 9 -30 -36 0 -32 3 -39 20 -39 25 0 26 -12 3
-31 -26 -21 -143 -58 -173 -55 -14 2 -29 4 -34 5 -5 0 -2 9 7 19 14 15 14 19
-4 41 -22 27 -25 78 -5 124 15 36 53 74 63 64 3 -4 1 -7 -6 -7 -7 0 -10 -4 -6
-9 3 -5 1 -12 -5 -16 -5 -3 -10 -28 -10 -55 0 -39 4 -52 20 -60 27 -14 57 -4
65 21 9 28 -3 90 -22 111 -14 15 -13 19 11 42 14 14 36 26 50 26 21 0 26 -6
33 -42 l8 -41 47 49 c36 37 46 43 42 27 -6 -21 -3 -23 29 -23 54 0 89 42 46
55 -17 6 -19 9 -8 16 26 16 48 9 70 -22z m-4141 -103 c0 -13 -8 -34 -18 -46
-16 -20 -21 -21 -40 -9 -29 18 -28 22 9 53 38 32 49 33 49 2z m3546 -97 c-9
-26 -16 -56 -16 -66 0 -11 -4 -23 -9 -28 -4 -6 -11 -22 -15 -37 -6 -26 -4 -28
23 -28 22 0 29 -4 25 -14 -7 -17 -25 -26 -77 -36 -39 -8 -56 2 -39 23 6 7 29
68 52 137 23 69 47 131 53 139 19 24 21 -34 3 -90z m-258 -54 c-13 -77 -12
-74 -31 -119 -23 -52 -22 -56 13 -63 35 -7 35 -23 -1 -39 -39 -18 -73 -24 -89
-14 -12 8 -12 11 1 27 8 10 23 45 33 78 16 50 37 116 62 194 3 9 8 11 13 5 5
-5 5 -35 -1 -69z m-4184 -30 c4 -17 1 -34 -11 -50 -20 -28 -28 -29 -72 -14
-41 15 -40 39 4 78 41 35 68 31 79 -14z m12306 10 c0 -24 -6 -37 -20 -45 -24
-13 -60 3 -60 25 0 22 37 55 60 55 16 0 20 -7 20 -35z m-8370 -25 c20 -13 2
-44 -29 -48 -23 -4 -27 9 -11 39 12 21 18 23 40 9z m7981 -21 c21 -52 13 -134
-20 -205 -23 -49 -35 -64 -51 -64 -32 0 -33 20 -5 104 20 61 24 87 19 127 -5
38 -3 53 7 60 24 15 36 10 50 -22z m-8216 -50 c-4 -5 -12 -9 -18 -9 -7 0 -25
-9 -41 -19 l-29 -20 56 -16 c66 -19 81 -39 72 -95 -6 -37 -5 -39 22 -42 l28
-3 -35 -20 c-48 -28 -115 -49 -134 -42 -18 7 -62 -6 -130 -39 -28 -13 -55 -24
-61 -24 -6 0 -22 -11 -35 -25 -30 -32 -95 -51 -116 -34 -18 15 -17 39 2 64 12
16 14 36 9 90 -5 60 -3 75 14 103 20 32 30 38 99 60 41 13 78 -1 88 -32 13
-39 6 -102 -15 -139 -19 -34 -19 -37 -3 -37 25 0 113 28 129 41 10 9 10 15 2
25 -9 11 -4 17 25 29 33 14 55 39 45 49 -2 2 -19 6 -37 9 -61 10 -77 41 -46
86 26 37 131 76 109 40z m8587 -14 c-6 -50 -41 -72 -70 -43 -29 29 8 82 53 76
16 -2 19 -9 17 -33z m-764 -60 c27 -59 2 -205 -43 -255 -17 -19 -55 -16 -55 4
0 6 9 39 21 71 16 46 20 75 16 127 -2 37 -2 70 1 73 15 15 50 3 60 -20z
m-7578 -39 c-11 -14 -8 -16 19 -16 37 0 38 -6 9 -31 -22 -17 -98 -27 -98 -12
0 3 7 15 17 25 9 11 11 18 5 18 -18 0 -14 31 5 52 16 18 17 18 37 -1 16 -17
17 -23 6 -35z m-760 -28 c0 -7 -10 -29 -21 -47 -12 -20 -22 -54 -23 -80 -1
-43 1 -46 27 -49 16 -2 27 -9 27 -18 0 -8 7 -17 15 -20 19 -8 20 -34 1 -34 -8
0 -16 -5 -18 -10 -4 -13 -108 -26 -108 -14 0 5 9 15 21 22 20 13 20 13 -5 33
-18 14 -26 33 -31 67 -3 26 -10 62 -16 81 -14 42 2 61 57 68 22 3 41 7 43 9
10 9 31 3 31 -8z m11050 -39 c0 -6 -4 -7 -10 -4 -5 3 -10 11 -10 16 0 6 5 7
10 4 6 -3 10 -11 10 -16z m-3093 -49 c-8 -62 -12 -70 -42 -70 -27 0 -37 21
-29 58 12 47 24 62 51 62 25 0 26 -1 20 -50z m-8224 13 c4 -3 1 -13 -7 -22
-16 -18 -59 -142 -52 -149 3 -2 20 -7 38 -11 22 -5 33 -13 32 -24 -1 -10 6
-17 17 -17 54 0 -7 -45 -74 -55 -49 -8 -60 2 -32 25 13 11 12 15 -10 36 -14
13 -25 33 -26 46 -3 61 -7 86 -19 108 -11 20 -10 25 11 41 13 10 40 20 59 22
19 2 40 4 46 5 6 1 14 -1 17 -5z m10869 -45 c5 -30 -11 -80 -23 -72 -10 6 -12
77 -2 87 12 13 22 7 25 -15z m-66 -33 c-1 -20 -10 -43 -19 -52 -16 -16 -17
-16 -17 9 0 30 19 78 31 78 5 0 7 -16 5 -35z m164 -1 c0 -8 -4 -14 -9 -14 -11
0 -22 26 -14 34 9 9 23 -3 23 -20z m-2904 -29 c36 -55 -8 -157 -77 -180 -26
-9 -35 -19 -39 -41 -4 -21 -12 -30 -29 -32 -13 -2 -28 1 -34 7 -16 16 -71 13
-111 -6 -32 -15 -36 -15 -60 1 -20 13 -26 25 -26 54 0 46 19 115 34 124 28 19
36 8 36 -52 0 -88 29 -76 45 19 7 40 34 81 54 81 5 0 12 -17 16 -37 l8 -38 9
35 c12 43 28 60 70 76 56 20 86 17 104 -11z m-8323 1 c9 -7 17 -20 17 -29 0
-9 5 -19 10 -22 13 -8 13 -115 1 -115 -5 0 -16 -3 -24 -6 -12 -4 -20 9 -33 55
-13 46 -21 61 -35 61 -24 0 -39 -31 -46 -94 -4 -37 -11 -56 -24 -65 -24 -15
-26 -11 -33 95 -6 88 1 106 44 123 36 14 102 13 123 -3z m10742 -68 c32 -14
32 -28 1 -28 -25 0 -51 22 -39 33 8 9 8 9 38 -5z m-2885 -17 c0 -17 5 -19 35
-14 30 5 35 3 35 -14 0 -12 -12 -25 -32 -34 -29 -12 -33 -19 -36 -56 -3 -40
-2 -42 25 -40 42 3 41 -26 -2 -46 -68 -32 -105 -13 -105 53 0 21 -4 41 -9 44
-5 3 -11 15 -14 26 -4 15 2 24 24 35 16 9 29 22 29 30 0 13 26 34 43 35 4 0 7
-9 7 -19z m-8483 -22 c15 -25 22 -29 43 -24 14 4 39 7 55 8 l30 2 -3 -52 c-4
-56 6 -83 45 -124 22 -24 23 -28 9 -42 -9 -9 -16 -20 -16 -26 0 -6 -6 -11 -14
-11 -7 0 -19 -7 -26 -15 -7 -9 -29 -15 -55 -15 -40 0 -103 -23 -116 -43 -4 -6
-20 -7 -37 -4 -20 4 -43 -1 -68 -14 -24 -12 -49 -17 -65 -14 -17 4 -30 0 -39
-10 -18 -21 -77 -46 -94 -39 -8 3 -17 13 -21 22 -5 12 -11 6 -25 -25 -21 -48
-59 -76 -98 -75 -15 1 -53 2 -84 2 -75 2 -83 21 -28 69 39 34 41 38 34 78 -3
23 -15 50 -25 59 -24 22 -24 45 1 72 11 12 20 32 20 46 0 15 11 33 26 45 31
25 47 26 63 7 10 -11 7 -18 -11 -31 -16 -12 -19 -19 -10 -22 39 -15 63 -50 75
-110 9 -48 16 -64 34 -72 27 -12 26 -16 23 90 -1 67 1 79 22 102 26 30 114 67
159 67 17 0 40 -5 51 -11 23 -12 42 5 33 30 -8 20 14 83 33 99 28 22 60 14 79
-19z m11073 -54 c0 -19 -4 -37 -10 -40 -6 -3 -10 4 -10 17 0 13 -3 33 -6 46
-5 18 -3 21 10 16 10 -4 16 -18 16 -39z m-12844 -31 c17 -66 -72 -108 -129
-61 l-28 24 47 46 c46 45 47 46 75 31 16 -8 32 -26 35 -40z m10113 13 c6 -8
14 -28 17 -45 6 -28 3 -32 -32 -52 -33 -18 -35 -20 -11 -15 22 4 27 2 27 -14
0 -27 -36 -59 -81 -73 -51 -15 -84 -4 -99 32 -23 55 30 146 100 173 28 10 67
7 79 -6z m2805 -39 c-3 -5 -12 -8 -20 -8 -14 0 -20 31 -7 43 8 8 33 -25 27
-35z m-10430 23 c-3 -3 -9 -6 -12 -7 -4 0 -20 -6 -35 -12 -15 -7 -42 -14 -59
-17 -17 -3 -35 -8 -40 -11 -4 -3 -8 -1 -8 4 0 10 11 14 89 36 47 14 75 16 65
7z m10125 -23 c0 -16 -2 -18 -6 -8 -3 8 -11 18 -17 22 -7 5 -4 8 7 8 11 0 17
-7 16 -22z m131 -64 c0 -8 -39 -4 -45 5 -3 5 0 21 7 36 l12 26 13 -32 c7 -17
13 -33 13 -35z m-2840 31 c0 -20 -6 -25 -35 -31 -47 -8 -55 -24 -13 -24 92 0
71 -100 -30 -140 -25 -10 -39 -10 -58 -1 -31 14 -29 45 4 49 21 3 32 22 12 22
-5 0 -17 11 -26 25 -15 23 -15 27 2 53 22 35 42 50 79 61 52 16 65 13 65 -14z
m-7613 -1 c-3 -3 -12 -4 -19 -1 -8 3 -5 6 6 6 11 1 17 -2 13 -5z m10114 -41
c-8 -15 -10 -15 -11 -2 0 17 10 32 18 25 2 -3 -1 -13 -7 -23z m193 -34 c-7
-13 -34 -11 -34 2 0 6 5 20 11 32 l12 21 9 -23 c4 -12 6 -27 2 -32z m-302 14
c4 -19 -26 -111 -41 -126 -19 -19 -31 3 -15 28 15 24 15 25 -6 33 -22 8 -22 9
9 21 32 14 39 25 21 36 -17 10 -11 25 9 25 11 0 21 -8 23 -17z m-11299 -11
c23 -25 43 -86 51 -155 7 -53 10 -60 37 -69 20 -7 28 -15 25 -25 -3 -8 -6 -20
-6 -27 0 -7 -13 -27 -28 -44 -23 -25 -37 -32 -66 -32 -43 0 -81 22 -101 59
-11 21 -14 22 -15 8 0 -11 -9 -32 -20 -47 -13 -18 -16 -31 -10 -35 19 -12 10
-33 -32 -78 -33 -35 -54 -47 -90 -55 -131 -27 -208 43 -208 187 0 63 17 105
61 156 47 53 99 75 182 75 77 0 77 0 97 -102 6 -32 14 -58 17 -58 3 0 2 35 -2
77 -6 60 -12 81 -27 91 -29 21 -19 54 22 74 45 23 93 23 113 0z m8522 -52 c0
-19 -7 -26 -33 -32 -38 -10 -62 -53 -62 -111 0 -36 -15 -57 -41 -57 -21 0 -29
20 -28 73 1 79 18 108 79 134 66 27 85 26 85 -7z m2505 -56 c0 -13 6 -33 12
-44 10 -16 10 -23 -4 -36 -9 -9 -21 -13 -27 -10 -12 8 -16 108 -5 119 12 11
24 -4 24 -29z m159 -3 c17 -17 18 -21 5 -31 -18 -16 -44 -5 -44 18 0 17 8 32
17 32 2 0 12 -9 22 -19z m-2889 -11 c33 -33 26 -67 -17 -88 -21 -11 -51 -22
-67 -26 -22 -6 -26 -10 -17 -19 9 -9 21 -7 53 11 30 18 43 21 51 13 26 -26
-40 -81 -104 -88 -35 -4 -48 -1 -62 15 -56 62 28 198 126 201 9 1 26 -8 37
-19z m-270 -36 c0 -13 7 -15 35 -10 30 6 35 4 35 -12 0 -12 -11 -24 -29 -32
-29 -12 -41 -34 -41 -77 0 -19 6 -23 29 -23 37 0 46 -13 23 -32 -67 -59 -118
-41 -124 43 -1 19 -11 43 -21 53 -20 19 -20 20 5 40 14 12 31 31 37 44 13 25
51 30 51 6z m708 -19 c-3 -17 -110 -66 -173 -79 -40 -8 -64 7 -49 31 12 19
205 84 217 73 5 -4 7 -16 5 -25z m2032 31 c0 -3 -4 -8 -10 -11 -5 -3 -10 -1
-10 4 0 6 5 11 10 11 6 0 10 -2 10 -4z m-70 -30 c0 -2 -13 -30 -30 -62 -16
-32 -30 -65 -30 -71 0 -7 -5 -13 -11 -13 -12 0 -7 21 23 98 11 28 27 52 34 52
8 0 14 -2 14 -4z m-132 -74 c2 -24 -4 -43 -23 -68 -29 -38 -47 -40 -21 -2 21
29 21 74 0 82 -20 8 -40 -8 -60 -45 -19 -37 -18 -66 2 -77 20 -11 10 -32 -15
-32 -35 0 -46 26 -27 68 47 101 137 148 144 74z m-2660 1 c-2 -22 -9 -29 -29
-31 -40 -5 -61 -35 -68 -98 -6 -60 -24 -83 -56 -70 -16 6 -17 16 -12 87 5 83
13 101 44 104 10 1 32 9 48 18 17 9 40 16 53 17 20 0 23 -4 20 -27z m2452 7
c-11 -20 -4 -25 25 -21 6 1 -4 -11 -21 -26 -19 -17 -39 -50 -50 -83 -10 -30
-22 -59 -26 -64 -16 -20 -19 4 -5 52 14 44 14 51 -1 65 -14 15 -13 17 11 26
15 6 27 15 27 20 0 9 39 51 47 51 2 0 -1 -9 -7 -20z m-2690 -80 c18 -18 20
-31 18 -88 -3 -74 5 -64 -101 -113 -71 -33 -115 37 -62 100 21 24 23 31 11 31
-20 0 -21 33 -1 50 16 13 82 39 103 40 6 0 21 -9 32 -20z m-270 -40 c0 -17 3
-18 26 -10 36 14 44 13 44 -9 0 -11 -15 -28 -35 -40 -30 -17 -35 -26 -35 -56
0 -33 2 -35 35 -35 61 0 34 -48 -37 -65 -39 -10 -68 23 -68 76 0 32 -4 42 -20
46 -27 7 -25 31 3 44 13 6 28 24 34 40 13 35 53 42 53 9z m-8160 -81 c0 -39
-23 -69 -57 -75 -21 -4 -39 -2 -46 5 -6 6 -19 11 -28 11 -22 0 -32 26 -19 50
6 10 10 28 10 39 0 12 5 21 11 21 5 0 7 -4 4 -10 -3 -5 -1 -10 4 -10 6 0 11 4
11 8 0 4 15 12 33 17 28 9 35 7 55 -14 12 -13 22 -32 22 -42z m10730 51 c18
-18 19 -21 4 -27 -14 -5 -54 -81 -54 -104 0 -5 7 -9 15 -9 20 0 19 -17 -2 -29
-11 -6 -24 -6 -34 0 -16 8 -16 14 -4 59 12 44 11 52 -1 57 -21 8 -17 20 10 27
13 3 26 15 29 26 6 25 12 25 37 0z m-7260 -19 c0 -13 -22 -27 -53 -35 -38 -9
-30 -27 21 -44 82 -27 78 -83 -9 -128 -45 -22 -56 -24 -78 -14 -25 11 -25 12
-6 26 10 8 26 14 35 14 19 0 40 19 40 37 0 8 -13 13 -34 13 -84 0 -86 88 -3
124 37 16 87 20 87 7z m4538 -53 c-2 -17 -13 -25 -40 -31 -41 -10 -53 -27 -14
-20 39 8 66 -13 66 -51 0 -52 -60 -96 -131 -96 -27 0 -30 3 -27 28 2 20 9 28
28 30 48 6 56 16 16 21 -52 8 -65 30 -44 74 18 38 67 66 116 67 29 0 33 -3 30
-22z m2592 2 c0 -5 -11 -10 -25 -10 -33 0 -69 -39 -91 -98 -10 -26 -22 -53
-27 -59 -13 -18 -29 -5 -18 15 4 9 14 39 20 67 14 58 27 76 46 68 8 -3 22 2
30 11 18 18 65 22 65 6z m2365 0 c3 -5 1 -10 -4 -10 -6 0 -11 5 -11 10 0 6 2
10 4 10 3 0 8 -4 11 -10z m55 -47 c0 -13 -3 -13 -15 -3 -8 7 -12 16 -9 21 8
13 24 1 24 -18z m-2632 -53 c4 -46 -29 -94 -85 -127 l-42 -24 -20 20 c-18 18
-19 24 -9 53 25 72 79 121 128 116 21 -3 26 -9 28 -38z m-3004 -135 c9 -136
11 -133 -80 -162 -48 -15 -55 -15 -77 0 -68 44 -24 183 64 202 24 5 29 12 29
35 0 28 24 53 45 46 6 -1 14 -56 19 -121z m208 98 c10 -9 18 -28 18 -43 0 -21
-7 -30 -30 -39 -16 -6 -43 -16 -60 -22 -16 -6 -30 -15 -30 -20 0 -13 32 -10
60 6 36 21 52 19 48 -7 -5 -33 -63 -68 -114 -68 -56 0 -79 30 -71 91 12 88
124 152 179 102z m2609 -18 c3 -16 0 -42 -7 -56 -18 -36 -80 -89 -105 -89 -12
0 -25 -12 -36 -35 -15 -32 -43 -48 -43 -25 0 6 14 53 31 105 30 91 33 96 73
114 57 27 80 23 87 -14z m-7466 -21 c44 -20 63 -64 47 -108 -7 -18 -12 -48
-12 -68 0 -42 -19 -61 -80 -83 -49 -18 -101 -13 -120 10 -25 30 -40 17 -40
-34 0 -57 -23 -92 -81 -121 -77 -40 -150 -14 -135 46 5 18 3 30 -6 35 -21 14
-28 10 -28 -14 0 -30 -22 -50 -81 -75 -56 -24 -83 -28 -127 -18 -28 7 -36 4
-53 -18 -23 -30 -42 -32 -83 -11 -36 19 -31 20 -46 -14 -12 -31 -41 -44 -76
-35 -31 8 -33 18 -40 163 -6 112 -5 129 10 144 28 27 63 22 81 -13 18 -34 25
-36 65 -15 16 8 36 12 44 9 23 -9 25 -61 3 -103 -10 -20 -8 -26 13 -43 l25
-20 6 33 c3 19 13 49 22 67 15 28 16 32 2 32 -20 0 -19 33 3 52 61 55 154 68
195 29 l26 -23 20 41 c25 48 56 71 114 82 23 4 50 10 59 14 10 4 25 -2 39 -16
l22 -22 31 38 c30 37 94 74 129 75 11 0 34 -7 52 -16z m7266 -14 c5 0 9 -20 9
-45 0 -39 -5 -50 -40 -85 -22 -22 -54 -43 -70 -47 -21 -4 -32 -13 -36 -29 -7
-28 -30 -49 -38 -35 -6 9 5 59 36 161 12 38 21 48 58 67 25 12 51 20 58 17 8
-2 18 -4 23 -4z m-2161 -54 c0 -26 -26 -40 -141 -75 -61 -19 -103 -13 -93 14
3 8 7 15 8 15 0 0 46 16 101 34 122 42 125 42 125 12z m-4540 4 c0 -15 -40
-35 -122 -60 -73 -22 -108 -22 -108 -1 0 11 171 69 208 70 12 1 22 -3 22 -9z
m6509 -54 c-5 -17 -14 -50 -19 -73 -9 -35 -15 -43 -33 -43 -13 0 -32 -7 -43
-15 -26 -20 -51 -19 -63 3 -11 22 27 142 46 142 16 0 16 0 2 -56 -24 -94 35
-77 67 20 9 28 21 57 27 64 16 20 26 -5 16 -42z m2531 29 c7 -9 10 -18 7 -21
-10 -11 -37 5 -37 21 0 19 14 19 30 0z m-5176 -17 c19 -27 20 -94 2 -126 -29
-53 -135 -84 -165 -48 -20 24 -24 80 -8 119 30 69 137 104 171 55z m4862 -3
c-3 -20 -16 -31 -16 -13 0 13 8 28 16 28 1 0 1 -7 0 -15z m-2416 -40 c0 -10
-10 -15 -27 -15 -16 0 -37 -7 -48 -16 -17 -13 -18 -16 -5 -24 8 -5 25 -10 38
-10 50 0 31 -65 -29 -95 -32 -17 -85 -17 -83 0 1 6 17 13 35 16 66 10 77 30
27 44 -58 17 -46 61 27 99 38 20 65 20 65 1z m2548 3 c18 -18 15 -28 -8 -28
-13 0 -20 7 -20 20 0 23 10 26 28 8z m-5213 -28 c0 -14 -6 -26 -12 -26 -7 -1
-22 -2 -33 -3 -47 -3 -82 -83 -43 -98 9 -4 33 3 54 14 38 21 38 21 44 1 19
-56 -124 -103 -165 -53 -16 20 -15 87 3 122 19 35 90 75 127 71 19 -2 25 -9
25 -28z m4973 6 c3 -12 -1 -17 -10 -14 -7 3 -15 13 -16 22 -3 12 1 17 10 14 7
-3 15 -13 16 -22z m97 -27 c10 -15 -1 -23 -20 -15 -9 3 -13 10 -10 16 8 13 22
13 30 -1z m-182 -24 c-6 -17 -25 -15 -31 3 -2 7 5 12 17 12 14 0 19 -5 14 -15z
m-5123 -5 c15 0 32 -73 28 -125 -3 -46 -5 -50 -28 -50 -22 0 -26 5 -30 47 -7
58 -22 77 -45 58 -13 -11 -16 -28 -13 -73 3 -63 -11 -87 -46 -74 -13 5 -16 22
-16 91 0 78 2 86 23 97 12 7 23 12 24 11 2 -1 17 5 35 13 18 8 39 12 46 10 8
-3 18 -5 22 -5z m5102 -29 c14 -26 14 -32 2 -42 -19 -15 -44 5 -44 36 0 43 19
46 42 6z m-5347 -81 c6 -52 15 -94 20 -93 6 0 19 3 30 5 12 2 21 -3 23 -15 4
-22 -87 -66 -144 -70 -47 -3 -54 21 -11 41 20 10 27 20 27 42 0 41 -10 60 -31
60 -28 0 -24 35 5 48 18 8 23 16 19 31 -6 25 14 53 36 49 12 -2 18 -25 26 -98z
m5225 75 c33 -17 36 -25 19 -42 -19 -19 -79 14 -79 44 0 17 24 17 60 -2z
m-11500 -25 c0 -11 5 -20 10 -20 6 0 16 -11 22 -26 10 -22 9 -28 -13 -47 -13
-12 -36 -30 -50 -39 -26 -16 -28 -16 -44 2 -10 11 -29 20 -43 20 -19 0 -23 3
-16 18 4 9 8 32 8 50 0 30 1 32 36 32 20 0 45 7 56 15 26 20 34 19 34 -5z
m9028 8 c-3 -7 -19 -15 -37 -19 -18 -4 -37 -11 -43 -17 -14 -14 0 -34 20 -28
27 9 44 -9 40 -40 -4 -33 -64 -74 -111 -74 -43 0 -28 22 23 34 53 13 62 32 20
41 -37 8 -47 28 -30 59 20 39 129 79 118 44z m-7481 -58 c3 -30 -25 -66 -61
-80 -29 -10 -49 -49 -35 -64 5 -6 25 -4 49 4 36 12 43 12 51 -1 27 -42 -3 -90
-68 -108 -53 -15 -61 -14 -110 14 l-43 26 0 -29 c0 -33 -41 -77 -80 -85 -14
-3 -39 -11 -57 -18 -26 -10 -39 -10 -72 1 -39 13 -40 12 -73 -23 -19 -20 -46
-39 -60 -42 -15 -4 -34 -22 -47 -45 -38 -68 -120 -65 -122 4 0 14 -6 7 -16
-19 -23 -54 -38 -68 -92 -82 -115 -30 -201 42 -201 170 0 80 44 145 125 183
59 28 97 30 135 8 26 -16 30 -16 94 15 88 41 137 42 178 0 28 -28 32 -29 47
-15 8 9 10 16 4 16 -17 0 -24 29 -12 52 15 28 86 58 138 58 35 0 51 -6 72 -26
l27 -26 20 38 c35 68 96 106 167 101 35 -2 40 -5 42 -27z m4497 8 c3 -13 6
-40 6 -60 0 -32 -4 -39 -24 -44 -37 -9 -46 2 -46 56 0 36 5 52 18 59 27 16 39
13 46 -11z m2810 -13 c-4 -8 -14 -15 -24 -15 -46 0 -82 -43 -94 -112 -4 -22
-15 -42 -26 -48 -25 -13 -25 -2 -2 90 15 58 20 65 44 68 14 2 32 10 38 18 17
20 71 19 64 -1z m2164 -69 c2 -10 -2 -22 -10 -27 -21 -14 -31 -10 -24 7 4 9 1
23 -6 31 -10 13 -8 14 12 11 15 -2 26 -11 28 -22z m-2380 -33 c3 -29 0 -31
-63 -54 -36 -12 -64 -28 -62 -33 4 -13 53 -13 81 -1 35 15 12 -19 -25 -37 -94
-47 -133 12 -68 101 53 74 131 87 137 24z m3592 37 c0 -5 -2 -10 -4 -10 -3 0
-8 5 -11 10 -3 6 -1 10 4 10 6 0 11 -4 11 -10z m-6624 -57 c-4 -16 -9 -57 -12
-93 -5 -59 -3 -69 20 -103 31 -46 33 -64 5 -72 -25 -8 -65 25 -85 72 -34 79 3
223 57 223 18 0 20 -4 15 -27z m2774 11 c0 -12 7 -15 30 -12 40 6 38 -8 -4
-26 -29 -12 -36 -21 -44 -58 -10 -50 -8 -58 19 -58 29 0 23 -17 -11 -29 -56
-19 -70 0 -50 68 8 29 7 34 -10 38 -27 7 -25 21 4 34 13 6 29 22 35 35 12 27
31 32 31 8z m2425 -2 c-29 -24 -50 -89 -35 -107 9 -11 7 -16 -8 -24 -28 -15
-51 12 -34 40 15 23 15 56 1 65 -15 9 40 42 71 43 25 1 25 0 5 -17z m141 8
c24 0 16 -19 -11 -26 -26 -6 -34 -29 -13 -36 16 -6 2 -38 -16 -38 -18 0 -46
27 -46 44 0 23 42 68 57 62 8 -3 21 -6 29 -6z m-298 -50 c11 0 7 -6 -13 -19
-20 -12 -36 -33 -45 -60 -18 -55 -35 -66 -26 -17 5 25 3 43 -5 52 -10 12 -8
16 10 21 12 3 27 17 32 32 9 23 11 24 20 9 6 -10 18 -18 27 -18z m-2418 -45
c0 -7 -14 -15 -32 -19 -62 -12 -79 -46 -23 -46 68 0 56 -63 -17 -99 -50 -24
-78 -27 -78 -8 0 7 20 18 44 25 49 13 71 42 32 42 -65 0 -77 43 -23 83 43 33
97 45 97 22z m-230 -19 c0 -8 -7 -16 -15 -20 -15 -5 -21 14 -8 27 11 12 23 8
23 -7z m3725 -23 c5 -17 2 -23 -10 -23 -19 0 -30 24 -21 47 8 19 21 9 31 -24z
m-1255 -12 c0 -52 -26 -99 -60 -106 -16 -4 -30 -10 -30 -15 0 -12 -28 -20 -45
-14 -32 13 -16 50 38 90 34 25 53 46 51 57 -1 12 5 17 22 17 20 0 24 -5 24
-29z m-5050 -11 c0 -21 -4 -24 -52 -34 -16 -4 -28 -11 -28 -16 0 -6 11 -8 24
-4 36 9 66 -4 77 -33 18 -48 -40 -100 -118 -106 -35 -2 -38 0 -38 23 0 22 5
25 37 28 20 2 42 10 50 19 11 14 9 15 -22 11 -65 -10 -98 19 -79 70 12 31 67
62 112 62 31 0 37 -4 37 -20z m6046 -18 c-3 -30 -22 -72 -34 -72 -4 0 -12 11
-18 24 -12 26 -2 46 23 46 8 0 16 7 19 15 9 22 12 18 10 -13z m-3479 -14 c-3
-18 -9 -48 -13 -65 -6 -29 -4 -33 15 -33 40 0 21 -18 -41 -39 -34 -12 -66 -21
-70 -21 -18 0 -6 21 16 30 31 11 35 18 43 76 5 41 4 47 -10 41 -11 -4 -17 -1
-17 7 0 11 43 31 74 35 5 1 6 -14 3 -31z m3597 -10 c-3 -5 -12 -4 -20 3 -7 6
-11 15 -8 21 3 5 12 4 20 -3 7 -6 11 -15 8 -21z m-6457 2 c4 -16 11 -19 27
-14 36 12 50 10 54 -9 2 -12 -7 -22 -32 -32 -37 -16 -41 -26 -27 -75 6 -22 12
-24 44 -22 49 5 51 -23 2 -44 -69 -29 -98 -13 -109 61 -7 42 -9 45 -34 43 -37
-4 -42 28 -8 43 17 8 26 20 26 35 0 36 48 47 57 14z m2698 -108 c-9 -42 -23
-87 -31 -100 -20 -31 -73 -62 -107 -62 -39 0 -30 23 12 31 18 4 41 14 50 24
15 15 14 16 -20 10 -48 -9 -73 14 -64 59 12 61 66 113 123 120 18 2 36 7 40
10 14 15 13 -17 -3 -92z m2273 59 c24 -15 8 -42 -42 -69 -53 -29 -60 -44 -25
-52 22 -5 22 -6 -4 -23 -14 -9 -32 -17 -38 -17 -15 0 -49 30 -49 42 0 21 51
82 87 104 42 26 52 28 71 15z m1282 -33 c0 -10 -11 -10 -29 1 -9 6 -11 16 -7
27 7 18 8 18 22 0 8 -11 14 -23 14 -28z m-6410 -18 c12 -22 0 -30 -65 -46 -27
-7 -25 -8 23 -14 55 -6 72 -19 72 -57 0 -42 -89 -92 -147 -81 -28 5 -23 42 7
46 80 9 98 32 25 32 -36 0 -48 5 -60 24 -27 41 2 79 85 109 30 11 50 7 60 -13z
m4873 6 c4 -11 16 -13 41 -9 31 5 36 3 41 -20 4 -16 -1 -39 -14 -66 -29 -56
-44 -53 -35 5 11 73 -18 52 -80 -57 -29 -53 -30 -18 -1 76 25 83 37 100 48 71z
m1395 -25 c-14 -5 -31 15 -23 29 5 8 11 6 20 -7 9 -11 10 -19 3 -22z m-3606 4
c15 -33 2 -47 -73 -74 -35 -13 -59 -27 -56 -34 6 -19 34 -20 69 -3 17 9 33 14
36 11 9 -9 -18 -32 -58 -50 -55 -25 -90 -10 -90 38 0 89 140 181 172 112z
m-2933 -3 c5 -10 9 -24 8 -32 -2 -16 22 -130 29 -142 3 -4 16 -3 30 2 19 8 26
6 31 -7 9 -22 -16 -38 -99 -63 -46 -14 -74 -18 -80 -12 -14 14 -2 31 28 42 40
15 29 100 -12 100 -33 0 -32 33 1 48 21 10 24 16 16 29 -11 21 3 53 24 53 8 0
19 -8 24 -18z m-4496 -30 c-3 -12 4 -22 21 -30 38 -17 35 -26 -28 -80 -37 -32
-39 -33 -58 -16 -11 11 -32 17 -49 16 -34 -3 -33 -3 -15 33 8 15 12 34 9 42
-8 20 14 33 54 33 17 0 35 5 38 10 11 18 33 11 28 -8z m7237 -10 c0 -11 -8
-18 -22 -19 -44 -4 -72 -36 -87 -101 -13 -54 -33 -83 -49 -68 -6 7 17 126 29
149 5 9 16 17 24 17 8 0 29 9 47 20 41 25 58 25 58 2z m2273 -5 c4 3 7 2 7 -3
0 -5 -9 -15 -19 -21 -11 -7 -25 -29 -31 -49 -11 -32 -10 -39 3 -49 19 -14 4
-35 -25 -35 -25 0 -31 21 -20 63 6 23 6 39 0 45 -6 6 1 20 19 39 24 24 30 27
44 16 9 -7 19 -10 22 -6z m1074 -27 c18 -14 30 -17 38 -10 14 12 26 3 19 -15
-3 -7 5 -15 18 -18 21 -6 22 -8 7 -22 -15 -15 -19 -15 -54 0 -26 10 -42 12
-49 5 -18 -18 -26 -11 -20 19 4 16 1 32 -5 35 -13 8 -5 26 11 26 5 0 21 -9 35
-20z m-6252 -40 c3 -5 -4 -28 -16 -52 l-21 -42 22 -18 c13 -10 30 -23 38 -27
24 -14 6 -41 -27 -41 -16 0 -33 5 -36 10 -12 20 -40 9 -60 -23 -13 -21 -30
-33 -48 -35 -15 -2 -27 -1 -27 3 0 3 12 29 26 57 18 36 23 53 15 56 -26 9 -64
49 -57 60 9 16 51 15 77 0 18 -11 23 -10 33 6 28 48 66 70 81 46z m2495 -12
c0 -12 -7 -63 -16 -113 l-17 -91 -58 -21 c-76 -28 -94 -17 -87 51 7 60 46 104
100 112 29 5 38 11 38 26 0 24 18 58 30 58 6 0 10 -10 10 -22z m3535 2 c3 -5
2 -10 -4 -10 -6 0 -16 -18 -22 -40 -10 -32 -9 -43 1 -55 12 -14 11 -18 -1 -26
-19 -12 -25 -11 -39 6 -10 12 -10 21 -1 44 7 16 11 36 9 44 -2 9 6 23 17 31
24 18 32 19 40 6z m122 -47 c22 -17 9 -45 -19 -41 -29 4 -41 46 -19 72 16 18
16 18 19 0 2 -11 11 -24 19 -31z m-1327 -18 c34 -41 -63 -162 -123 -153 -18 2
-22 9 -21 40 2 74 107 157 144 113z m-5055 -30 c44 -43 33 -62 -52 -89 -29
-10 -53 -21 -53 -26 0 -20 23 -20 63 -1 56 27 67 26 67 -3 0 -18 -10 -29 -45
-45 -94 -44 -165 -11 -165 79 0 31 41 87 74 100 41 17 86 11 111 -15z m4843
-21 c7 4 12 2 12 -4 0 -7 -8 -14 -19 -17 -35 -9 -59 -103 -26 -103 8 0 15 -4
15 -9 0 -11 -25 -21 -52 -21 -19 0 -20 4 -14 49 4 30 2 52 -4 56 -5 3 4 20 22
39 28 30 34 32 44 18 6 -8 16 -12 22 -8z m-2345 -19 c4 -8 2 -40 -3 -72 -6
-32 -10 -61 -10 -64 0 -4 -9 -9 -20 -12 -22 -6 -22 -4 -11 66 16 99 -53 62
-73 -39 -9 -44 -17 -60 -30 -62 -17 -4 -18 1 -12 45 16 109 17 113 45 120 14
3 35 12 46 19 26 18 61 18 68 -1z m3379 -34 c37 -19 41 -37 16 -61 -25 -23
-40 -26 -32 -6 3 8 -3 19 -15 26 -12 6 -21 19 -21 29 0 19 10 33 19 28 3 -1
18 -9 33 -16z m-1195 -27 c7 -18 -14 -87 -34 -112 -13 -15 -14 -9 -9 41 6 52
4 58 -11 55 -11 -2 -31 -31 -51 -70 -17 -38 -37 -68 -42 -68 -12 0 -13 9 -1
46 5 16 12 42 16 57 9 45 118 87 132 51z m-2393 -57 c-2 -81 -8 -90 -72 -114
-71 -28 -79 -28 -90 -5 -20 36 25 89 94 112 19 6 34 16 34 21 0 15 -44 10 -68
-7 -29 -20 -47 -15 -30 9 18 24 87 47 113 37 16 -6 20 -16 19 -53z m3420 55
c2 -4 1 -26 -4 -50 -4 -26 -4 -45 2 -48 12 -8 -10 -24 -34 -24 -15 0 -15 4 -2
47 8 26 12 53 10 59 -8 20 17 34 28 16z m-9407 -74 c-7 -66 -36 -197 -48 -220
-10 -19 -39 -25 -39 -8 0 21 53 246 61 263 19 35 32 18 26 -35z m3226 40 c9
-7 24 -44 34 -81 14 -59 14 -70 2 -78 -31 -19 -48 -10 -59 34 -19 73 -21 77
-34 77 -27 0 -37 -28 -34 -92 3 -61 2 -63 -22 -63 -22 0 -27 7 -42 65 -24 95
-23 108 9 116 15 4 38 13 52 20 33 17 72 18 94 2z m4911 -75 c-6 -38 -4 -49
11 -59 17 -13 16 -15 -16 -27 -74 -30 -118 -30 -69 0 10 7 25 31 31 54 11 34
10 42 -2 50 -12 8 -12 10 1 19 8 5 23 10 33 10 16 0 17 -6 11 -47z m897 -23
c12 0 19 -5 16 -12 -2 -7 2 -26 10 -41 18 -36 9 -49 -31 -42 -24 5 -36 2 -50
-14 -25 -27 -46 -27 -46 2 l0 22 -23 -25 c-39 -45 -84 -81 -103 -84 -11 -2
-31 3 -45 10 -25 13 -29 11 -74 -31 -26 -25 -56 -45 -67 -45 -29 0 -58 19 -58
38 0 20 72 102 89 102 6 0 3 -10 -9 -22 -26 -29 -27 -78 -1 -78 31 0 44 26 38
75 -6 43 -5 45 18 45 13 0 30 -9 38 -21 15 -20 15 -20 36 7 24 30 35 26 36
-13 0 -34 18 -40 45 -13 16 16 20 28 15 48 -9 36 -13 38 -35 24 -11 -7 -23
-12 -26 -12 -10 0 39 36 59 43 23 9 57 -9 57 -29 0 -19 21 -14 30 7 4 8 18 37
31 64 22 47 24 48 27 23 2 -20 9 -28 23 -28z m-6022 4 c47 -60 35 -124 -32
-164 -70 -43 -143 -11 -154 66 -6 50 7 78 50 104 48 30 110 27 136 -6z m521 6
c29 -18 -5 -43 -106 -76 -54 -18 -107 -33 -116 -34 -17 0 -20 4 -22 32 -1 6
48 28 109 49 131 44 117 41 135 29z m-820 -15 c6 -8 10 -18 7 -22 -3 -4 5 -39
18 -78 22 -68 23 -70 53 -67 33 4 50 -12 33 -32 -15 -17 -156 -60 -175 -53
-26 10 -18 34 15 46 24 8 29 15 25 31 -3 11 -8 29 -11 39 -4 12 -17 21 -33 23
-40 5 -41 35 -1 52 19 8 27 16 20 20 -6 4 -11 18 -11 32 0 19 5 24 24 24 13 0
29 -7 36 -15z m5105 -27 c-12 -82 -35 -149 -53 -154 -9 -3 -31 -13 -48 -21
-24 -12 -35 -13 -52 -4 -27 14 -28 31 -3 79 23 45 45 65 93 85 20 8 39 25 43
36 12 39 27 23 20 -21z m-2255 20 c0 -7 -21 -20 -46 -28 -25 -8 -47 -19 -48
-25 0 -5 19 -12 44 -15 52 -6 64 -28 33 -62 -20 -23 -89 -57 -115 -58 -31 0
-19 27 14 34 70 14 103 60 35 49 -43 -7 -65 16 -49 52 19 42 132 87 132 53z
m-5773 -49 c-4 -16 1 -23 24 -31 32 -11 34 -27 3 -43 -10 -5 -32 -23 -48 -39
-27 -28 -29 -29 -42 -11 -10 14 -25 18 -50 17 l-35 -3 16 25 c9 14 14 30 10
36 -9 14 23 50 39 44 7 -3 28 2 47 10 44 19 42 20 36 -5z m5534 -14 c39 9 38
-13 -1 -27 -30 -10 -37 -24 -42 -83 -3 -28 -1 -30 30 -27 44 3 40 -15 -7 -29
-63 -19 -74 -9 -65 57 6 54 6 56 -15 49 -15 -4 -21 -2 -21 8 0 8 9 17 20 20
11 3 24 16 29 30 12 31 35 40 39 15 3 -16 9 -18 33 -13z m-2877 -31 c12 -11
25 -14 47 -9 22 5 34 3 40 -6 14 -23 11 -29 -27 -45 -29 -12 -34 -18 -29 -37
4 -12 9 -30 12 -40 4 -15 11 -18 39 -12 27 5 36 2 41 -11 8 -21 -18 -41 -64
-50 -42 -8 -78 21 -87 72 -6 27 -12 34 -30 34 -13 0 -30 7 -37 16 -11 14 -10
18 6 30 10 8 23 14 28 14 4 0 7 8 5 18 -6 39 28 55 56 26z m2637 -65 c-17
-102 -16 -109 19 -109 38 0 39 -14 1 -30 -59 -24 -66 -14 -63 83 3 83 2 87
-18 87 -12 0 -20 5 -18 12 5 15 70 38 81 28 4 -4 3 -36 -2 -71z m2523 55 c9
-4 16 -18 16 -34 0 -25 -6 -30 -49 -45 -27 -9 -52 -23 -55 -32 -5 -13 0 -15
35 -9 50 8 44 -6 -13 -33 -49 -22 -76 -17 -84 15 -9 37 15 83 59 115 40 29 61
34 91 23z m856 -33 c0 -6 16 -11 36 -13 55 -5 64 -28 35 -83 -33 -63 -47 -58
-41 14 3 34 -21 22 -48 -25 -39 -67 -40 -69 -47 -62 -8 8 10 96 29 143 14 32
36 48 36 26z m-1130 -31 c0 -34 6 -37 38 -14 29 20 41 10 19 -14 -22 -24 -21
-38 3 -64 11 -12 20 -25 20 -29 0 -16 -34 -18 -56 -4 -22 14 -25 13 -46 -15
-26 -36 -48 -39 -48 -7 0 23 34 149 45 167 12 20 25 10 25 -20z m-5020 -30
c15 -28 5 -40 -35 -40 -41 0 -65 -22 -65 -60 0 -44 47 -51 91 -13 14 12 19 12
33 -2 9 -9 16 -20 16 -25 0 -14 -42 -40 -82 -51 -97 -26 -176 80 -116 156 41
53 137 74 158 35z m2619 -37 c0 -21 -4 -58 -7 -81 -6 -40 -11 -45 -47 -59 -22
-9 -53 -16 -70 -17 -30 -1 -30 -1 -33 59 -2 41 2 66 12 80 21 29 30 13 27 -50
-2 -48 0 -55 17 -55 29 0 50 30 57 85 11 78 46 107 44 38z m2289 -5 c7 -7 12
-26 12 -43 0 -59 -104 -139 -150 -115 -27 15 -25 45 8 96 38 61 101 91 130 62z
m-5154 -40 c16 -15 31 -45 40 -83 14 -55 14 -61 -1 -72 -25 -19 -50 2 -65 55
-12 40 -17 47 -38 47 -21 0 -25 -5 -24 -30 0 -16 4 -49 8 -72 7 -37 5 -42 -14
-48 -31 -10 -45 8 -70 93 -21 74 -20 92 6 92 8 0 31 9 51 20 49 26 76 25 107
-2z m6055 10 c18 -11 18 -12 1 -37 -25 -36 -34 -91 -15 -91 24 0 17 -19 -9
-26 -38 -9 -48 3 -41 51 4 25 3 45 -3 49 -6 4 1 18 16 35 33 35 29 33 51 19z
m-3609 -18 c0 -5 -13 -16 -30 -25 -16 -9 -30 -20 -30 -26 0 -7 11 -8 30 -4 42
9 39 -12 -4 -30 -33 -14 -35 -17 -41 -80 -6 -51 -12 -68 -27 -76 -20 -11 -20
-9 -16 55 4 63 3 66 -19 66 -31 0 -29 18 2 26 14 3 25 12 25 19 0 18 40 65 64
75 29 12 46 12 46 0z m198 -2 c13 -13 15 -77 3 -116 -11 -41 -152 -81 -165
-47 -11 31 21 71 81 101 54 26 56 29 30 32 -16 2 -39 -4 -52 -12 -30 -20 -35
-20 -35 -2 0 16 75 56 106 56 11 0 25 -5 32 -12z m2322 -27 c16 -31 12 -51
-20 -91 -33 -41 -75 -63 -112 -58 -20 3 -23 8 -22 46 1 33 8 50 30 73 48 51
105 64 124 30z m2144 4 c38 -16 45 -35 21 -55 -10 -9 -17 -9 -27 0 -7 6 -21
16 -31 23 -12 8 -16 19 -11 30 7 21 4 20 48 2z m-7342 -32 c16 -18 48 -117 48
-147 0 -18 -98 -66 -134 -66 -40 0 -65 28 -85 97 -11 37 -18 70 -15 75 8 13
51 9 63 -6 6 -8 17 -33 24 -57 14 -49 39 -62 57 -30 8 16 7 34 -5 73 -11 38
-12 55 -4 65 15 18 33 16 51 -4z m4912 -9 c5 -13 15 -15 41 -11 27 4 37 2 44
-12 16 -29 -18 -139 -39 -126 -5 3 -6 28 -3 55 3 32 1 50 -5 50 -20 0 -53 -44
-66 -90 -7 -25 -20 -46 -28 -48 -14 -3 -14 5 -1 73 22 117 40 152 57 109z
m-5160 -24 c-1 -13 5 -31 13 -38 18 -19 12 -34 -20 -50 -32 -15 -31 -13 -11
-82 14 -47 14 -54 0 -68 -24 -24 -58 5 -74 62 -10 38 -16 46 -35 46 -47 0 -62
40 -21 58 14 7 22 16 19 22 -18 29 49 81 100 77 25 -2 30 -6 29 -27z m6343
-25 c-3 -31 -2 -55 4 -55 5 0 9 -4 9 -8 0 -12 -46 -32 -72 -32 -19 0 -20 1 -6
13 23 17 41 87 27 104 -9 10 -6 15 12 22 13 5 26 10 28 10 2 1 1 -24 -2 -54z
m1061 24 c-8 -24 -8 -37 0 -50 12 -19 0 -35 -18 -24 -14 9 -13 27 5 69 19 44
28 48 13 5z m-1198 -59 c0 -39 -27 -103 -40 -95 -5 3 -7 25 -3 50 10 73 -27
52 -68 -40 -21 -46 -23 -48 -27 -23 -2 14 2 44 7 66 9 32 18 42 49 55 20 8 47
15 60 16 18 1 22 -4 22 -29z m1028 -21 c-2 -32 -8 -53 -16 -56 -20 -8 -22 0
-11 43 21 83 30 87 27 13z m-4742 -71 c-7 -101 -16 -128 -41 -128 -7 0 -26 -7
-41 -15 -58 -30 -94 -11 -94 50 0 57 48 110 106 117 22 2 30 9 32 28 5 40 10
50 28 50 15 0 16 -10 10 -102z m216 77 c15 -33 4 -43 -70 -70 -35 -12 -57 -26
-57 -35 0 -23 32 -24 75 -1 31 16 40 17 40 7 0 -30 -98 -70 -136 -55 -29 10
-37 56 -16 99 35 73 140 108 164 55z m4399 -19 c29 -63 -72 -152 -144 -126
-26 9 -34 8 -43 -4 -23 -32 -35 -22 -37 32 -2 43 1 53 16 58 20 6 49 -23 42
-43 -3 -10 83 42 95 57 3 4 12 10 20 13 11 4 10 6 -4 6 -20 1 -20 1 0 16 27
21 43 18 55 -9z m-1139 -64 c-3 -42 -1 -51 15 -55 13 -3 5 -10 -30 -26 -49
-23 -68 -22 -50 1 6 7 16 30 23 52 10 32 10 40 -1 47 -11 8 -10 12 6 24 31 24
40 13 37 -43z m-1132 29 c0 -4 -15 -12 -32 -17 -18 -6 -34 -17 -36 -27 -3 -13
4 -17 32 -17 31 0 36 -3 36 -23 0 -13 -11 -33 -24 -46 -23 -22 -93 -47 -103
-37 -9 9 8 26 26 26 11 0 29 8 42 19 l23 19 -42 7 c-49 8 -55 29 -19 62 41 37
97 57 97 34z m-226 -26 c-7 -16 -24 -21 -24 -6 0 8 7 13 27 20 1 1 0 -6 -3
-14z m-5146 -13 c22 -22 56 -118 48 -137 -2 -7 4 -21 15 -31 27 -24 24 -53 -7
-65 -43 -16 -100 34 -63 56 7 5 3 15 -10 29 -11 12 -29 48 -40 79 -18 51 -18
58 -5 72 20 20 40 19 62 -3z m7367 -49 c-30 -68 -32 -70 -46 -56 -18 18 30
113 57 113 10 0 7 -14 -11 -57z m-131 21 c38 9 56 -2 56 -37 0 -59 -127 -149
-171 -122 -6 4 -19 -1 -29 -10 -11 -10 -26 -15 -34 -12 -8 3 -22 -3 -32 -14
-13 -15 -20 -16 -31 -7 -11 9 -17 7 -29 -10 -14 -21 -16 -21 -39 -6 -23 15
-25 15 -25 0 0 -21 -72 -66 -105 -66 -35 0 -41 23 -20 71 22 48 35 50 35 4 0
-57 49 -36 65 27 4 15 14 33 22 40 12 10 17 9 28 -5 11 -16 14 -14 25 14 13
31 35 44 113 69 29 9 42 9 50 1 19 -19 27 -13 47 35 17 39 23 44 35 34 8 -7
26 -10 39 -6z m-2100 -63 c-6 -57 -6 -60 15 -54 11 3 21 1 21 -5 0 -11 -63
-36 -115 -46 -28 -6 -29 -5 -11 8 10 9 23 17 28 18 12 4 30 86 23 99 -4 5 -11
7 -16 4 -5 -4 -9 -1 -9 5 0 6 10 15 23 20 45 18 48 14 41 -49z m1041 19 c13
-20 -6 -48 -45 -65 -22 -10 -46 -25 -53 -33 -10 -13 -7 -15 28 -9 l40 6 -24
-20 c-51 -42 -103 -35 -109 14 -5 40 75 117 122 117 19 0 38 -5 41 -10z
m-3589 -56 c21 -32 12 -42 -64 -69 -35 -12 -57 -26 -57 -35 0 -23 32 -24 76
-1 37 20 40 20 37 4 -4 -22 -71 -56 -109 -56 -39 0 -59 20 -59 59 0 51 73 124
123 124 28 0 40 -6 53 -26z m3307 12 c4 -11 16 -13 42 -9 44 7 58 -8 49 -52
-15 -75 -61 -97 -49 -24 4 21 4 39 0 39 -21 0 -45 -26 -64 -70 -23 -54 -46
-68 -37 -22 3 15 8 47 12 72 10 70 33 102 47 66z m-6373 -11 c8 -10 12 -39 11
-75 -2 -67 7 -90 57 -142 38 -40 38 -68 -1 -68 -32 0 -86 42 -120 93 -26 38
-28 48 -25 111 3 53 8 71 23 82 24 18 40 18 55 -1z m6300 -10 c0 -3 -15 -11
-34 -19 -32 -13 -35 -19 -51 -90 -19 -85 -48 -125 -47 -66 0 3 3 31 7 63 l6
57 -28 0 c-26 1 -26 2 -8 12 38 22 155 55 155 43z m-3445 -105 c0 -63 -3 -75
-17 -78 -16 -3 -18 5 -18 57 0 56 -10 76 -25 51 -3 -6 -9 -38 -13 -72 -6 -51
-11 -63 -26 -66 -17 -4 -19 1 -14 49 7 66 2 85 -18 68 -9 -7 -14 -31 -14 -65
0 -34 -5 -58 -16 -68 -8 -9 -17 -16 -20 -16 -2 0 -4 36 -4 80 l0 80 43 17 c23
10 46 16 50 15 4 -1 18 5 30 13 12 9 31 14 42 13 18 -3 20 -11 20 -78z m2408
66 c3 -8 3 -32 0 -53 -13 -87 -49 -103 -40 -18 5 48 3 55 -12 55 -26 0 -48
-30 -56 -75 -14 -74 -46 -105 -44 -42 1 62 22 106 59 126 43 23 86 26 93 7z
m1908 -46 c21 0 39 -6 42 -13 8 -21 -3 -60 -23 -87 l-18 -24 -12 42 c-13 50
-25 47 -51 -14 -29 -65 -43 -67 -36 -7 8 71 34 130 49 115 7 -7 29 -12 49 -12z
m-2103 -56 c2 -32 -2 -48 -22 -71 -31 -37 -77 -57 -111 -49 -21 5 -25 12 -25
44 0 21 7 48 16 61 24 34 75 62 109 59 27 -3 30 -6 33 -44z m-2444 10 c34 -33
22 -48 -64 -79 -33 -12 -55 -26 -55 -35 0 -23 32 -24 75 -1 41 21 62 14 32
-11 -28 -24 -77 -40 -113 -36 -28 2 -35 8 -42 34 -24 85 109 187 167 128z
m2191 -4 c-3 -5 -10 -10 -16 -10 -5 0 -9 5 -9 10 0 6 7 10 16 10 8 0 12 -4 9
-10z m-5244 -24 c1 -6 1 -16 0 -22 -1 -6 6 -17 14 -24 23 -19 18 -45 -11 -59
-28 -12 -28 -13 -2 -99 10 -36 10 -44 -1 -52 -26 -16 -56 6 -80 58 -19 39 -30
52 -46 52 -12 0 -29 6 -39 13 -18 13 -17 15 7 38 14 13 27 35 29 49 6 45 125
87 129 46z m7406 13 c9 -9 8 -17 -2 -33 -19 -30 -29 -86 -16 -86 6 0 11 -4 11
-10 0 -5 -11 -10 -24 -10 -23 0 -25 5 -28 48 -2 34 2 55 16 75 22 30 27 32 43
16z m-4687 -39 l0 -31 30 16 c65 34 90 15 90 -71 0 -47 -4 -63 -16 -68 -26
-10 -31 0 -26 57 5 64 -11 78 -52 46 -22 -17 -26 -28 -26 -74 0 -35 -5 -57
-15 -65 -9 -7 -18 -10 -21 -7 -8 7 -5 207 2 219 13 20 34 6 34 -22z m2519 -42
c-3 -48 -1 -53 21 -59 23 -6 22 -8 -20 -26 -60 -27 -100 -36 -100 -23 0 5 5
10 10 10 6 0 19 9 30 20 25 25 29 103 5 94 -8 -4 -15 -1 -15 4 0 14 30 31 53
32 16 0 18 -7 16 -52z m-211 6 c6 -11 17 -15 31 -11 30 7 26 -5 -8 -24 -20
-12 -30 -27 -35 -53 -9 -46 -1 -58 32 -49 24 6 25 4 14 -10 -7 -9 -27 -19 -44
-22 -38 -9 -49 7 -41 57 5 33 3 39 -18 46 l-23 9 22 12 c13 7 27 23 32 37 11
28 25 31 38 8z m-2492 -29 c5 -12 15 -14 41 -9 46 9 42 -16 -4 -30 -34 -9 -40
-21 -39 -76 1 -35 1 -35 41 -32 37 3 39 2 24 -13 -8 -8 -32 -18 -53 -22 -46
-7 -56 4 -56 68 0 45 -1 46 -27 41 -25 -5 -27 -4 -14 11 7 10 19 17 26 17 7 0
15 14 19 30 6 32 32 41 42 15z m3485 0 c1 -8 2 -21 3 -27 2 -14 34 -12 53 4 9
7 9 3 0 -21 -9 -25 -8 -33 6 -49 33 -37 11 -56 -35 -31 -22 12 -31 5 -58 -41
-6 -11 -12 -12 -20 -4 -10 10 6 116 25 167 9 21 25 22 26 2z m-6283 -85 c39
-76 47 -85 70 -83 28 3 52 -12 52 -33 0 -14 -96 -53 -152 -61 -45 -7 -75 11
-57 33 6 8 17 14 25 14 39 0 18 76 -25 87 -28 6 -51 21 -51 33 0 4 14 13 30
20 29 12 30 14 14 31 -23 26 -11 51 23 47 23 -3 34 -16 71 -88z m7297 30 c-18
-20 -31 -90 -16 -90 6 0 11 -4 11 -10 0 -5 -11 -10 -25 -10 -23 0 -25 4 -25
45 0 28 -4 45 -12 45 -6 0 1 13 16 29 24 25 31 28 47 18 16 -10 16 -14 4 -27z
m-775 -5 c0 -13 -29 -35 -44 -35 -14 0 -4 40 11 49 20 11 33 6 33 -14z m-1377
0 c1 -5 -12 -11 -30 -13 -21 -2 -41 -14 -58 -33 -46 -56 -26 -96 38 -74 49 17
48 1 -3 -25 -48 -24 -58 -25 -82 -3 -23 21 -23 50 2 91 29 48 127 89 133 57z
m1035 -27 c43 -43 -41 -148 -117 -148 -35 0 -45 35 -23 78 32 63 109 101 140
70z m8029 -7 c-3 -11 1 -22 8 -25 20 -7 7 -45 -29 -84 -17 -19 -35 -40 -39
-48 -12 -21 -27 -17 -27 7 0 25 -18 16 -30 -17 -11 -27 -87 -78 -115 -76 -10
0 -25 -4 -33 -11 -25 -20 -85 -37 -98 -26 -8 6 -16 4 -24 -7 -8 -9 -22 -13
-35 -10 -14 4 -25 -1 -33 -14 -14 -24 -32 -26 -32 -5 0 25 -17 17 -39 -20 -11
-19 -27 -35 -34 -35 -8 0 -26 -10 -40 -23 -20 -16 -38 -22 -69 -21 -25 0 -50
-6 -60 -14 -14 -12 -21 -12 -32 -3 -11 10 -17 8 -29 -9 -8 -12 -21 -22 -28
-24 -8 -1 -27 -10 -43 -21 -26 -17 -29 -17 -37 -2 -11 19 -37 12 -61 -18 l-16
-20 -31 23 c-16 12 -35 22 -40 22 -15 0 -85 -34 -89 -43 -2 -4 -9 -4 -15 0
-23 14 -40 11 -57 -10 l-17 -21 -13 24 c-7 14 -14 42 -16 63 -3 35 -1 38 19
31 26 -8 21 -3 40 -39 l16 -30 1 27 c0 20 16 44 58 86 87 88 109 102 157 102
25 0 48 6 55 14 6 8 37 21 68 28 31 6 72 22 91 35 19 13 49 23 70 23 20 1 54
9 76 20 22 11 54 19 71 20 17 0 34 3 38 8 4 4 11 7 14 7 22 2 52 18 52 29 0 6
10 12 21 13 12 1 29 9 39 18 10 9 49 21 86 26 37 5 75 16 83 23 9 7 23 14 31
15 8 0 42 3 75 7 33 3 66 6 73 6 6 1 12 5 12 10 0 4 3 8 6 8 4 0 4 -9 1 -19z
m-7132 -41 c-5 -16 -2 -20 17 -20 13 0 29 -4 37 -9 31 -20 -35 -81 -86 -80
-27 0 -27 1 7 12 37 13 57 50 22 41 -10 -3 -24 2 -31 10 -11 13 -11 20 3 41
20 30 40 33 31 5z m-2135 -29 c0 -59 -11 -101 -26 -101 -10 0 -14 15 -14 55 0
47 -3 55 -19 55 -27 0 -42 -23 -55 -87 -14 -71 -36 -83 -36 -20 0 80 9 105 41
112 16 4 31 11 34 16 4 5 22 9 41 9 33 0 34 -1 34 -39z m1048 -19 c6 -62 -73
-133 -132 -118 -33 8 -37 26 -16 74 22 49 72 84 115 80 26 -3 30 -7 33 -36z
m-3558 -1 c33 -62 -10 -146 -81 -157 -36 -6 -39 -9 -39 -40 0 -19 -2 -34 -4
-34 -2 0 -11 -3 -20 -6 -14 -5 -16 8 -16 105 0 98 2 112 18 117 9 3 28 12 42
19 37 21 87 19 100 -4z m4538 -14 c6 -51 -62 -117 -121 -117 -14 0 -27 7 -31
15 -7 20 10 65 34 87 21 20 41 25 22 6 -14 -14 -16 -74 -4 -82 5 -3 23 7 41
22 39 33 41 75 3 80 -34 5 -15 24 21 20 27 -2 33 -8 35 -31z m-2237 -50 c-3
-64 -9 -87 -24 -87 -6 0 -29 -9 -52 -20 -59 -29 -75 -20 -75 42 0 50 13 88 30
88 6 0 10 -25 10 -55 0 -48 2 -55 20 -55 26 0 47 34 56 90 6 41 21 66 33 54 3
-2 4 -28 2 -57z m969 23 c5 0 20 5 34 11 51 23 71 -26 41 -98 -19 -45 -30 -36
-26 22 2 40 0 45 -18 45 -25 0 -45 -30 -61 -87 -11 -46 -30 -58 -30 -20 0 86
39 204 48 147 2 -11 7 -20 12 -20z m-1160 23 c0 -5 -14 -16 -30 -25 -39 -22
-39 -39 0 -31 39 7 38 0 -4 -25 -30 -18 -35 -27 -41 -74 -4 -29 -12 -59 -17
-65 -20 -24 -29 -1 -22 53 l6 54 -28 0 -29 1 25 15 c14 9 34 30 45 48 16 25
52 46 93 55 1 1 2 -2 2 -6z m2240 -38 c26 -32 -16 -103 -78 -131 -20 -10 -47
-26 -59 -37 -27 -24 -28 -20 -7 71 15 65 18 71 52 85 72 31 76 31 92 12z
m-4580 -75 c0 -78 -4 -86 -34 -81 -5 1 -16 -5 -25 -13 -27 -25 -66 -29 -85
-11 -23 23 -19 140 4 140 11 0 16 -14 18 -57 3 -54 5 -58 27 -58 34 0 55 36
55 96 0 53 5 64 27 64 10 0 13 -20 13 -80z m-1601 -21 c20 -21 30 -21 63 3 9
7 21 9 25 4 4 -4 0 -13 -10 -20 -25 -19 -21 -34 10 -38 45 -5 40 -28 -7 -28
-41 0 -41 0 -35 -30 8 -37 -15 -42 -37 -8 -15 22 -16 22 -42 5 -36 -24 -58
-17 -28 8 30 26 28 33 -10 37 -47 4 -41 22 8 26 39 3 40 4 36 32 -5 36 0 37
27 9z m4762 -13 c21 5 22 4 7 -8 -9 -7 -23 -17 -32 -23 -8 -5 -16 -28 -18 -50
-3 -35 0 -40 22 -45 22 -5 23 -7 7 -13 -10 -4 -30 -7 -43 -7 -22 0 -24 4 -24
44 0 30 -5 46 -15 50 -13 5 -9 13 17 41 27 28 35 32 44 20 6 -8 20 -12 35 -9z
m-221 -36 c0 -5 -5 -10 -11 -10 -5 0 -7 5 -4 10 3 6 8 10 11 10 2 0 4 -4 4
-10z m1185 -22 c-8 -13 -20 -40 -26 -62 -12 -45 -23 -41 -21 9 2 47 18 75 43
75 19 0 19 -1 4 -22z m-5870 3 c3 -6 -4 -19 -16 -30 -23 -21 -20 -26 25 -33
11 -2 21 -9 24 -15 2 -9 -9 -13 -38 -13 -40 0 -42 -1 -38 -25 7 -35 -11 -43
-33 -16 -13 16 -25 21 -39 16 -11 -3 -20 -11 -20 -16 0 -5 -10 -9 -22 -9 l-21
0 21 23 c28 30 28 33 -8 41 -44 8 -37 26 11 26 39 0 41 1 35 25 -5 19 -2 25 9
25 9 0 18 -7 21 -15 8 -21 38 -19 59 5 21 23 22 23 30 11z m1283 -3 c-3 -7
-15 -14 -29 -16 -36 -4 -69 -23 -69 -40 0 -11 9 -13 43 -8 45 6 60 1 70 -26 4
-12 -2 -26 -16 -39 -45 -43 -137 -66 -137 -34 0 10 10 15 33 15 33 0 77 23 77
41 0 5 -22 9 -50 9 -38 0 -52 4 -59 18 -20 38 46 91 112 92 19 0 27 -4 25 -12z
m2362 -8 c0 -6 -8 -13 -17 -16 -87 -28 -94 -42 -25 -46 38 -2 48 -7 50 -23 5
-34 -70 -85 -124 -85 -28 0 -13 16 28 30 57 20 65 51 12 47 -52 -3 -67 23 -34
58 31 33 110 58 110 35z m-3930 -17 c-1 -5 -15 -64 -33 -133 -24 -95 -36 -126
-50 -128 -23 -5 -22 3 14 146 27 101 35 122 50 122 11 0 19 -3 19 -7z m4968
-50 c-3 -51 -1 -58 15 -55 9 2 17 -2 17 -7 0 -6 -26 -18 -57 -27 -32 -9 -62
-18 -68 -21 -5 -2 -1 2 9 11 10 8 23 17 28 18 4 2 11 27 15 56 5 46 4 52 -11
46 -9 -3 -16 -2 -16 4 0 9 40 29 63 31 4 1 7 -25 5 -56z m-1288 32 c0 -8 -7
-15 -15 -15 -16 0 -20 12 -8 23 11 12 23 8 23 -8z m2356 -10 c10 -40 -44 -109
-95 -120 -38 -8 -51 0 -51 30 0 36 20 73 49 91 l26 17 -22 -25 c-24 -25 -31
-82 -13 -93 15 -9 59 22 69 48 10 28 3 57 -15 57 -8 0 -14 5 -14 10 0 6 13 10
30 10 23 0 31 -5 36 -25z m-4766 -1 c0 -14 7 -15 40 -10 51 8 52 -7 2 -27
l-38 -15 5 -49 c6 -47 7 -48 39 -45 38 4 43 -14 6 -28 -35 -14 -74 -12 -79 3
-2 6 -6 33 -10 58 -5 42 -8 46 -30 41 -32 -6 -32 12 0 26 14 6 25 20 25 30 0
10 3 22 7 25 12 13 33 7 33 -9z m4529 -16 c-8 -15 -6 -18 13 -18 l22 0 -21
-15 c-13 -9 -29 -39 -38 -72 -18 -60 -38 -58 -28 2 3 18 0 35 -6 39 -12 8 38
83 56 83 8 0 9 -6 2 -19z m-2093 -128 c41 0 17 -18 -52 -40 -75 -23 -74 -23
-74 -12 0 4 14 13 30 19 28 10 30 15 30 61 0 40 -4 51 -17 55 -13 3 -9 8 17
20 l35 15 3 -59 c3 -56 4 -59 28 -59z m1098 114 c18 -7 21 -58 6 -98 -16 -43
-32 -31 -29 21 3 36 0 48 -11 50 -27 5 -48 -22 -62 -77 -19 -76 -38 -78 -32
-3 6 66 8 69 61 94 45 20 47 21 67 13z m-234 -34 c0 -5 -5 -10 -11 -10 -5 0
-7 5 -4 10 3 6 8 10 11 10 2 0 4 -4 4 -10z m-1152 -28 c4 -23 17 -29 27 -12 3
6 21 10 40 10 41 0 47 -15 37 -84 -10 -69 -32 -73 -32 -7 0 38 -4 53 -16 58
-28 10 -58 -32 -64 -90 -4 -37 -9 -52 -20 -52 -13 0 -14 16 -11 95 2 52 5 99
8 103 9 14 28 1 31 -21z m-2296 -19 c34 -31 23 -49 -49 -74 -72 -26 -89 -45
-49 -55 17 -4 39 1 66 15 48 25 64 9 18 -19 -72 -44 -141 -36 -153 19 -18 82
107 168 167 114z m3443 -56 c0 -44 3 -52 18 -49 36 6 15 -17 -30 -32 -53 -18
-91 -21 -57 -4 32 15 48 108 19 108 -8 0 -15 4 -15 8 0 9 52 31 60 24 3 -2 5
-27 5 -55z m-3685 38 c0 -10 -10 -15 -27 -15 -34 0 -93 -34 -93 -54 0 -19 21
-25 67 -19 53 7 83 -10 83 -46 0 -42 -66 -89 -133 -94 -34 -2 -51 16 -20 21
41 7 102 34 107 48 10 27 -3 34 -63 34 -31 0 -62 5 -69 12 -20 20 -13 56 16
83 42 40 132 60 132 30z m2360 -30 c0 -13 7 -15 35 -9 19 3 35 4 35 0 0 -3
-16 -12 -35 -20 -33 -14 -35 -18 -35 -60 0 -45 1 -46 33 -46 31 -1 31 -1 12
-16 -11 -8 -33 -14 -50 -12 -28 3 -30 6 -35 53 -4 41 -8 49 -22 47 -25 -4 -23
15 2 23 11 3 23 17 26 31 7 26 34 33 34 9z m2150 -5 c0 -5 8 -10 18 -10 16 -1
16 -2 -2 -15 -11 -9 -20 -31 -23 -59 -5 -40 -3 -46 13 -46 18 -1 18 -1 1 -11
-30 -18 -47 -3 -47 40 0 22 -5 43 -10 46 -6 4 -1 18 12 35 24 30 38 37 38 20z
m1780 -7 c3 -84 9 -154 15 -179 19 -85 -126 -100 -164 -17 -27 58 3 143 65
183 28 19 84 27 84 13z m-2962 -82 c8 -5 12 -17 10 -27 -3 -18 -26 -33 -85
-55 -18 -6 -33 -18 -33 -26 0 -12 8 -14 38 -8 20 4 43 11 50 17 8 7 12 7 12
-1 0 -6 -20 -21 -44 -33 -116 -56 -147 49 -36 125 26 18 67 22 88 8z m984 -33
c-11 -18 -23 -48 -27 -65 -3 -18 -11 -33 -16 -33 -10 0 -10 53 0 90 4 14 17
27 31 31 14 4 26 7 28 8 2 1 -5 -14 -16 -31z m-1282 -28 c0 -18 2 -18 34 -5
51 21 66 11 66 -42 0 -48 -15 -87 -31 -78 -5 4 -9 26 -9 50 0 24 -4 47 -10 50
-16 10 -60 -41 -60 -69 0 -35 -18 -78 -30 -71 -13 8 -3 177 12 186 16 10 28 2
28 -21z m-1090 5 c0 -11 5 -12 26 -5 32 12 34 12 34 -1 0 -5 -13 -15 -30 -20
-30 -11 -31 -12 -34 -86 -1 -13 7 -18 26 -18 42 -1 43 -12 3 -25 -54 -18 -65
-9 -65 51 0 50 -1 51 -25 45 -14 -4 -25 -2 -25 3 0 5 9 11 20 14 11 3 24 17
30 31 10 28 40 36 40 11z m9417 -7 c22 -26 24 -85 2 -98 -7 -5 -33 -1 -61 10
l-48 18 0 -26 c0 -15 -8 -43 -18 -62 -15 -30 -22 -35 -51 -34 -29 1 -42 -7
-85 -52 -47 -50 -52 -53 -87 -48 -29 5 -44 1 -67 -16 -19 -14 -37 -20 -48 -16
-10 4 -25 0 -35 -10 -11 -10 -19 -14 -19 -9 0 4 -16 -5 -36 -20 -19 -15 -54
-30 -77 -33 -23 -3 -51 -11 -62 -18 -11 -7 -40 -16 -65 -20 -25 -3 -62 -17
-82 -30 -21 -13 -44 -24 -52 -24 -8 0 -42 -16 -75 -35 -40 -24 -72 -35 -98
-35 -21 0 -48 -7 -60 -15 -12 -8 -35 -13 -54 -11 -26 3 -38 -2 -60 -25 -19
-21 -36 -29 -61 -29 -22 0 -37 -6 -46 -20 -7 -11 -21 -20 -31 -20 -10 0 -29
-9 -43 -19 -13 -11 -53 -25 -88 -32 -64 -12 -106 -27 -145 -52 -70 -44 -98
-57 -122 -57 -40 -1 -159 -44 -216 -80 -26 -16 -61 -30 -76 -30 -16 0 -47 -6
-69 -14 -22 -8 -43 -12 -46 -8 -10 9 -77 -28 -116 -64 -27 -26 -69 -44 -190
-83 -85 -28 -165 -51 -176 -51 -12 0 -42 -9 -67 -20 -26 -11 -63 -21 -84 -22
-21 0 -56 -11 -79 -24 -22 -13 -43 -21 -47 -18 -3 3 -30 -10 -60 -30 -30 -20
-63 -36 -74 -36 -21 0 -184 -79 -212 -103 -9 -8 -23 -17 -31 -21 -8 -4 -26
-13 -40 -21 -48 -28 -126 -16 -158 24 -61 75 -16 188 88 222 19 7 40 14 45 17
6 4 58 23 118 42 127 43 199 47 244 14 16 -12 38 -24 49 -28 27 -8 64 24 64
56 0 32 46 115 70 128 10 5 40 17 66 26 27 9 74 27 104 41 71 33 197 77 291
101 41 11 101 36 133 56 33 20 67 36 76 36 20 0 154 48 220 78 62 28 203 51
254 41 73 -14 82 -12 100 26 9 19 21 35 26 35 6 0 10 6 10 14 0 8 11 24 26 35
31 24 145 63 176 60 26 -3 49 6 173 67 50 24 110 49 135 55 25 6 50 14 55 19
6 4 32 10 60 14 33 4 62 16 86 36 43 34 102 58 175 71 28 5 64 16 80 24 16 8
43 15 61 15 17 0 34 4 37 9 9 14 86 48 121 54 17 3 47 8 67 12 21 3 44 12 52
20 8 8 23 16 33 18 10 2 30 7 46 12 37 10 80 -2 73 -20 -7 -19 1 -19 19 -1 8
7 11 16 8 20 -4 3 1 6 11 6 9 0 19 7 22 15 8 21 17 19 41 -7z m-7177 -18 c27
-51 -62 -142 -123 -126 -51 12 -28 80 43 129 33 23 67 21 80 -3z m1726 -11
c43 -40 37 -143 -10 -181 -11 -10 -34 -18 -49 -18 -61 0 -87 160 -35 212 23
23 61 18 94 -13z m-6431 -9 c8 -26 23 -25 51 1 12 12 28 18 34 14 7 -4 1 -14
-16 -27 -29 -24 -19 -38 29 -38 16 0 26 -4 22 -10 -3 -5 -24 -10 -46 -10 -40
0 -40 -1 -34 -30 5 -23 3 -30 -9 -30 -8 0 -18 9 -21 20 -8 26 -23 25 -51 -1
-12 -12 -28 -18 -34 -14 -7 4 -1 14 15 27 30 24 24 38 -16 38 -16 0 -29 5 -29
10 0 6 18 10 41 10 40 0 40 0 34 30 -5 23 -3 30 9 30 8 0 18 -9 21 -20z m3380
-20 c3 -5 18 -10 33 -10 25 -1 26 -1 7 -12 -32 -17 -45 -39 -45 -75 0 -29 3
-33 28 -33 26 -1 26 -1 8 -15 -26 -20 -62 -19 -70 1 -3 9 -6 31 -6 50 0 26 -4
34 -17 34 -15 1 -15 3 5 19 12 11 22 26 22 35 0 18 25 22 35 6z m2876 -83 c17
-70 17 -82 4 -113 -12 -29 -19 -34 -47 -34 -61 -1 -110 -18 -147 -52 -20 -19
-44 -40 -53 -47 -19 -14 -132 -33 -213 -35 -36 -1 -59 -8 -79 -23 -22 -17 -42
-23 -82 -23 -45 0 -58 -4 -86 -31 -43 -40 -73 -55 -128 -63 -24 -4 -59 -16
-77 -27 -46 -28 -90 -40 -117 -29 -30 11 -41 79 -21 126 14 34 57 54 119 54
16 0 44 13 68 32 29 22 54 32 89 36 39 4 58 12 94 44 45 40 45 40 100 31 46
-8 58 -7 82 9 15 10 40 18 55 18 15 0 30 5 33 10 13 22 170 90 206 90 34 0 61
17 91 58 19 26 61 53 77 50 9 -2 21 -33 32 -81z m-1743 61 c7 -7 12 -20 12
-30 0 -25 -57 -87 -97 -103 -19 -8 -37 -24 -40 -35 -6 -24 -19 -26 -26 -5 -6
14 6 107 17 135 7 17 70 48 102 49 11 1 25 -4 32 -11z m-2194 -14 c11 -28 6
-103 -6 -111 -19 -12 -80 -34 -109 -40 -16 -3 -30 1 -38 11 -20 23 10 63 64
87 24 11 47 24 50 29 11 18 -23 22 -54 6 -35 -19 -55 -21 -45 -5 20 34 127 51
138 23z m-324 -49 c0 -25 23 -35 35 -15 3 6 21 10 40 10 37 0 45 -12 45 -70 0
-48 -8 -70 -26 -70 -9 0 -14 17 -16 52 -3 58 -18 70 -53 44 -14 -10 -21 -30
-25 -73 -4 -43 -9 -58 -20 -58 -12 0 -16 17 -18 82 -3 79 7 123 28 123 6 0 10
-11 10 -25z m2314 -1 c21 -21 20 -40 -6 -82 -13 -21 -38 -42 -64 -53 -24 -11
-46 -28 -49 -39 -11 -35 -25 -22 -25 23 1 57 16 118 32 128 21 14 31 10 22 -8
-15 -35 -10 -77 9 -81 29 -6 57 27 57 65 0 29 -3 33 -27 33 l-28 1 25 14 c32
18 35 18 54 -1z m4506 -18 c0 -3 -4 -8 -10 -11 -5 -3 -10 -1 -10 4 0 6 5 11
10 11 6 0 10 -2 10 -4z m80 -5 c0 -5 -9 -7 -20 -4 -11 3 -20 7 -20 9 0 2 9 4
20 4 11 0 20 -4 20 -9z m-7080 -46 c0 -13 8 -15 38 -10 35 6 36 5 18 -9 -11
-9 -26 -16 -33 -16 -15 0 -26 -38 -21 -71 2 -20 8 -24 36 -23 38 2 42 -13 6
-26 -58 -22 -67 -16 -79 53 -5 30 -10 37 -28 37 l-22 0 21 18 c12 9 27 27 33
40 13 25 31 29 31 7z m2290 -50 l0 -54 -47 -21 c-26 -11 -54 -19 -63 -18 -17
3 -25 47 -15 85 8 35 25 18 25 -28 0 -41 12 -49 41 -26 22 17 39 51 39 80 0
21 7 37 17 37 2 0 3 -25 3 -55z m-1065 15 c0 -20 -9 -28 -63 -48 -57 -22 -62
-26 -49 -40 15 -15 24 -13 91 14 29 11 10 -13 -22 -30 -52 -26 -80 -28 -102
-6 -27 27 -25 52 7 90 32 39 57 50 103 47 30 -2 35 -6 35 -27z m-205 -30 c0
-5 -16 -16 -35 -24 -36 -15 -47 -33 -61 -99 -11 -49 -28 -53 -32 -8 -5 49 7
101 22 101 8 0 33 9 57 20 52 23 49 23 49 10z m1037 -6 c-4 -4 -16 -12 -28
-18 -26 -13 -22 -31 6 -32 54 -3 56 -4 53 -25 -4 -27 -42 -56 -83 -64 l-30 -6
30 14 c17 8 36 21 44 30 12 15 10 17 -22 17 -69 0 -70 46 -2 76 34 15 41 17
32 8z m4536 -66 c-6 -11 -31 -10 -37 1 -4 5 -3 17 0 26 6 14 8 14 24 -2 10
-10 16 -21 13 -25z m-913 -8 c0 -5 -7 -7 -15 -4 -8 4 -12 10 -9 15 6 11 24 2
24 -11z m-4866 -37 c11 -39 -8 -74 -57 -104 -45 -27 -88 -22 -99 13 -12 36 7
76 52 106 49 33 91 27 104 -15z m-217 21 c-4 -4 -16 -12 -29 -18 -33 -17 -36
-40 -4 -34 33 7 34 -9 2 -23 -20 -10 -25 -21 -31 -70 -5 -41 -11 -59 -21 -59
-10 0 -14 14 -14 50 0 37 -4 50 -15 50 -23 0 41 87 73 98 32 12 48 14 39 6z
m-949 -16 c21 -21 14 -47 -15 -54 -16 -4 -48 -16 -72 -26 -42 -18 -43 -20 -28
-35 16 -16 20 -16 67 4 59 25 67 12 10 -17 -42 -22 -105 -27 -115 -9 -4 6 -7
26 -8 46 -1 50 56 103 111 103 21 0 43 -5 50 -12z m-1313 -28 c3 -11 12 -20
19 -20 7 0 21 9 31 20 10 11 25 20 33 20 11 0 7 -9 -13 -30 l-29 -30 38 0 c50
0 43 -24 -8 -28 -35 -3 -37 -5 -32 -28 8 -30 -18 -34 -34 -4 l-11 21 -30 -21
c-16 -12 -35 -20 -41 -18 -7 3 -1 12 15 22 37 25 34 36 -8 36 -19 0 -35 5 -35
10 0 6 18 10 41 10 36 0 40 3 39 23 -3 31 -1 37 9 37 5 0 13 -9 16 -20z m3360
-88 c-5 -39 -14 -62 -31 -79 -14 -14 -28 -22 -31 -19 -4 4 -1 12 5 18 20 20
14 24 -35 24 -48 -1 -48 -1 -51 34 -2 29 3 41 28 65 17 17 50 35 73 41 38 9
42 8 45 -10 2 -11 1 -44 -3 -74z m-2310 58 c38 14 50 13 36 -4 -7 -8 -23 -17
-36 -20 -23 -6 -25 -12 -25 -57 l0 -51 36 7 c46 8 37 -9 -13 -26 -32 -10 -38
-9 -50 7 -7 10 -13 35 -13 57 0 37 -2 39 -25 33 -14 -4 -25 -3 -25 2 0 5 11
14 25 20 14 7 25 20 25 31 0 26 23 33 32 10 6 -16 12 -17 33 -9z m2113 -74 c4
-36 -5 -76 -18 -76 -6 0 -10 18 -10 41 0 33 -4 42 -21 46 -16 4 -18 8 -7 14
26 17 53 5 56 -25z m-1110 2 c23 -23 14 -46 -20 -54 -48 -10 -99 -36 -95 -48
5 -13 52 -14 86 -2 43 15 13 -12 -34 -29 -42 -16 -46 -16 -70 -1 -38 25 -33
62 15 108 43 40 93 51 118 26z m1017 -15 c-8 -16 -17 -45 -20 -65 -9 -59 -28
-47 -23 14 4 34 12 56 24 65 28 20 34 16 19 -14z m-2189 -18 c31 -47 -6 -115
-75 -135 -68 -19 -107 28 -76 93 31 65 119 90 151 42z m-212 -87 c6 -80 5 -88
-13 -97 -11 -6 -22 -11 -25 -11 -3 0 -25 25 -50 55 l-45 56 -3 -73 c-2 -55 -6
-73 -17 -73 -15 0 -18 13 -24 122 -3 56 -1 63 20 72 21 10 27 6 66 -44 l42
-55 3 67 c3 62 17 93 33 75 4 -4 10 -46 13 -94z m1061 61 c5 -14 12 -18 23
-14 47 18 75 18 89 0 42 -58 -10 -127 -114 -150 l-33 -7 0 90 c0 49 3 92 7 95
12 12 22 7 28 -14z m4926 9 c5 -57 -16 -81 -57 -63 -16 8 -23 14 -16 14 6 1
12 6 12 12 0 11 40 48 53 49 4 0 8 -6 8 -12z m-1824 -14 c4 -10 0 -20 -10 -26
-10 -5 -17 -21 -17 -38 0 -43 -44 -90 -85 -90 -20 0 -41 -9 -56 -23 -46 -44
-77 -57 -133 -57 -45 0 -60 -5 -82 -25 -41 -38 -96 -32 -150 17 -29 26 -51 14
-66 -33 -14 -50 -50 -89 -80 -89 -13 0 -39 -13 -58 -28 -54 -44 -77 -54 -128
-51 -34 2 -57 -4 -82 -20 -52 -32 -75 -35 -117 -14 -29 14 -40 26 -47 55 -8
31 -6 40 15 66 13 17 30 33 38 36 18 8 93 -14 108 -32 14 -17 15 -17 31 21 19
45 68 69 128 63 48 -4 54 -2 87 29 32 30 88 55 127 55 8 0 31 16 51 36 38 37
48 40 117 28 38 -6 46 -4 70 19 36 34 72 47 127 45 34 -2 50 3 69 21 25 23 87
50 119 51 10 0 20 -7 24 -16z m-1927 -39 c0 -33 5 -47 16 -52 12 -4 8 -9 -16
-19 -38 -16 -43 -17 -36 -5 10 15 14 101 5 101 -5 0 -9 5 -9 10 0 6 9 10 20
10 17 0 20 -7 20 -45z m-178 -10 c7 4 3 -2 -10 -12 -25 -21 -41 -86 -23 -97
18 -11 13 -26 -9 -26 -16 0 -21 9 -26 50 -4 28 -12 50 -18 50 -8 0 -8 2 0 8 6
4 17 17 23 30 12 22 14 23 31 7 10 -9 25 -14 32 -10z m2323 -24 c-20 -33 -175
-85 -189 -63 -12 20 42 51 134 77 45 12 68 6 55 -14z m-2500 -109 l0 -54 -53
-18 c-60 -21 -63 -22 -79 -8 -14 11 2 54 23 62 16 6 19 -10 4 -19 -18 -11 -10
-35 12 -35 25 0 58 27 58 47 0 7 -10 13 -21 13 -20 0 -20 1 6 22 23 18 25 22
11 30 -9 5 -21 6 -28 2 -7 -4 -8 -3 -4 5 5 7 22 11 39 9 32 -3 32 -4 32 -56z
m-1155 28 c-8 -5 -22 -10 -31 -10 -9 0 -24 -9 -33 -19 -23 -25 -7 -35 43 -26
31 5 40 3 45 -11 9 -22 -20 -64 -44 -64 -10 0 -22 -4 -25 -10 -3 -5 -18 -10
-33 -9 -15 0 -21 3 -12 6 91 33 105 60 33 65 -36 2 -49 7 -51 20 -6 29 49 65
103 67 16 1 17 -1 5 -9z m-1255 -40 c8 -25 20 -25 56 1 33 24 39 11 8 -17
l-21 -19 31 -5 c40 -6 37 -23 -4 -24 -26 -1 -30 -4 -28 -28 1 -19 -3 -28 -13
-28 -8 0 -14 3 -14 8 0 4 -4 13 -9 21 -7 12 -14 10 -36 -8 -37 -28 -54 -27
-27 2 29 31 28 37 -8 37 -16 0 -30 5 -30 10 0 6 18 10 40 10 39 0 39 1 34 30
-7 34 11 42 21 10z m1063 -32 c18 -18 16 -118 -2 -118 -11 0 -16 14 -18 47 -2
37 -7 49 -21 51 -31 6 -57 -27 -57 -72 0 -48 -15 -78 -28 -58 -16 24 -14 108
3 122 8 7 18 10 22 7 3 -4 17 3 31 13 28 23 53 25 70 8z m1064 4 c-7 -5 -16
-22 -21 -40 -10 -32 0 -55 29 -65 8 -3 1 -6 -16 -6 -33 -1 -44 12 -44 52 0 22
36 67 54 67 6 0 6 -4 -2 -8z m-172 -100 c0 -26 5 -53 11 -59 7 -7 4 -12 -10
-16 -27 -7 -29 -2 -31 58 -2 65 -2 65 15 65 11 0 15 -12 15 -48z m-1100 -30
l0 -67 -37 -14 c-21 -7 -51 -14 -68 -14 -28 -2 -30 0 -38 52 -7 41 -6 56 4 62
20 12 26 4 27 -41 2 -50 7 -60 32 -60 29 0 50 39 50 91 0 25 3 49 7 52 17 18
23 2 23 -61z m950 -11 c0 -78 0 -80 -30 -95 -33 -16 -37 -11 -15 18 19 26 19
60 -1 77 -14 11 -14 13 0 21 9 5 16 17 16 27 0 19 8 31 22 31 4 0 8 -36 8 -79z
m-1150 -1 c0 -5 -9 -10 -19 -10 -11 0 -32 -10 -46 -23 -21 -17 -28 -34 -30
-69 -7 -95 -35 -83 -35 15 0 41 4 57 13 57 7 0 31 9 53 20 44 22 64 25 64 10z
m1045 -17 c-15 -36 -17 -64 -5 -78 7 -8 16 -12 21 -9 5 3 9 0 9 -5 0 -6 -13
-11 -30 -11 -39 0 -50 37 -27 86 17 35 46 50 32 17z m1852 -60 c24 -48 19 -76
-18 -108 -22 -18 -42 -25 -73 -25 -41 0 -42 1 -55 44 -7 25 -10 54 -6 66 9 28
62 60 101 60 27 0 35 -6 51 -37z m-1957 -22 c0 -61 -15 -75 -24 -22 -3 22 -9
46 -12 55 -4 12 0 16 15 16 19 0 21 -6 21 -49z m-105 -18 c-13 -80 -16 -88
-26 -72 -10 16 -12 70 -3 93 3 9 13 16 21 16 11 0 12 -9 8 -37z m-155 -62 c0
-28 5 -53 11 -57 12 -7 -7 -24 -28 -24 -14 0 -22 118 -8 124 22 9 25 4 25 -43z
m-1128 -4 c-29 -31 -28 -37 11 -38 l32 -2 -37 -10 c-30 -8 -38 -15 -38 -34 0
-28 -11 -30 -28 -3 l-13 21 -26 -21 c-33 -25 -44 -17 -15 11 13 11 20 24 17
29 -3 5 -1 11 4 14 5 3 7 15 4 26 -6 24 5 26 22 3 11 -15 15 -15 46 5 43 28
48 27 21 -1z m2965 -8 c7 -6 13 -19 13 -29 0 -10 8 -28 18 -40 l18 -23 80 27
c89 29 104 31 104 14 0 -32 -180 -99 -206 -77 -9 7 -24 4 -51 -9 -21 -11 -61
-23 -88 -27 -28 -4 -66 -18 -86 -30 -20 -13 -67 -30 -105 -38 -38 -8 -91 -27
-117 -42 -41 -23 -56 -27 -97 -22 -37 4 -50 2 -54 -9 -11 -28 -69 -54 -124
-54 -40 0 -56 -5 -69 -20 -12 -14 -30 -20 -58 -20 -29 0 -44 -5 -53 -20 -7
-11 -22 -20 -34 -20 -11 0 -37 -12 -56 -27 -23 -17 -52 -28 -83 -31 l-47 -4 5
38 c3 25 -1 46 -9 58 -13 16 -12 23 5 57 10 22 25 39 31 39 7 0 28 -22 47 -50
19 -27 36 -50 39 -50 3 0 12 21 20 47 21 65 72 96 146 89 45 -5 53 -3 75 20
32 34 71 54 108 54 37 0 48 -16 27 -39 -22 -24 -20 -40 4 -38 14 1 18 6 14 19
-16 52 71 128 147 128 40 0 55 6 96 39 26 21 57 48 67 60 20 22 51 28 61 11
10 -16 36 -12 90 15 51 25 95 26 122 4z m-2297 -118 c-14 -27 1 -34 50 -26 32
5 41 3 46 -9 6 -17 -11 -46 -28 -46 -5 0 -8 8 -6 18 2 14 -6 18 -40 20 -46 3
-63 22 -42 47 18 22 33 18 20 -4z m3677 -53 c-3 -7 -5 -2 -5 12 0 14 2 19 5
13 2 -7 2 -19 0 -25z m-3781 -23 c9 -49 2 -68 -28 -76 -25 -6 -26 -5 -15 12 9
15 9 23 -1 39 -7 12 -8 20 -2 20 18 0 11 30 -7 31 -15 0 -15 2 2 8 30 12 44 3
51 -34z m-117 -57 c-10 -18 -8 -24 7 -35 18 -14 18 -14 -6 -11 -30 4 -37 29
-15 52 23 22 28 20 14 -6z m7109 -77 c-2 -22 -8 -26 -33 -26 -25 0 -30 4 -33
28 -3 21 2 29 20 36 30 11 50 -5 46 -38z m-7445 4 c32 18 32 18 15 -2 -24 -26
-23 -33 5 -34 21 -1 21 -1 -3 -8 -15 -4 -26 -15 -28 -29 -4 -25 -20 -29 -28
-7 -4 9 -13 13 -23 10 -12 -3 -17 1 -17 15 0 11 4 20 8 20 4 0 8 12 8 28 1 26
1 26 15 7 15 -19 16 -19 48 0z m7566 -9 c31 -20 -19 -74 -57 -61 -21 6 -34 38
-25 62 6 14 58 14 82 -1z m-249 -32 c0 -8 4 -14 9 -14 18 0 -10 -57 -34 -70
-13 -7 -29 -25 -35 -40 -6 -15 -21 -33 -33 -39 -12 -6 -37 -22 -55 -35 -40
-30 -160 -68 -226 -72 -27 -2 -56 -10 -66 -19 -9 -8 -27 -15 -39 -15 -28 0
-53 -14 -113 -61 -26 -20 -62 -40 -80 -44 -83 -17 -218 -60 -268 -85 -30 -15
-68 -30 -85 -34 -40 -10 -95 -33 -180 -77 -63 -33 -406 -159 -432 -159 -6 0
-44 -11 -85 -26 -40 -14 -84 -27 -98 -30 -14 -3 -39 -14 -57 -24 -18 -10 -49
-22 -70 -26 -21 -4 -40 -10 -43 -14 -3 -4 -32 -16 -66 -27 -54 -18 -67 -19
-110 -8 -31 8 -50 18 -52 29 -2 9 -8 16 -13 16 -23 0 -5 37 39 76 32 30 68 50
112 65 36 11 79 27 95 34 17 7 57 21 90 31 33 9 70 23 81 31 12 7 32 16 45 18
13 3 25 9 27 15 2 5 10 10 19 10 8 0 27 9 43 20 15 11 30 17 34 13 3 -3 14 1
23 9 31 26 157 85 210 97 63 15 124 9 183 -18 65 -30 75 -27 101 26 30 62 99
127 152 143 23 7 63 23 89 37 62 32 216 83 250 83 26 0 77 18 88 30 3 3 43 25
90 48 96 46 225 92 274 97 60 5 116 17 121 24 7 13 65 0 65 -15z m-5843 -129
c24 -17 38 -64 28 -95 -7 -22 -53 -28 -72 -9 -15 15 -33 3 -33 -21 0 -24 -30
-41 -58 -33 -15 4 -32 -4 -57 -25 -37 -34 -88 -48 -135 -38 -22 4 -30 2 -30
-9 0 -21 -39 -44 -93 -54 -44 -8 -70 0 -47 14 17 10 11 53 -10 73 -19 17 -19
19 -3 55 10 20 24 37 33 37 8 -1 31 -25 50 -55 19 -30 39 -55 46 -55 6 0 14
21 17 47 4 34 12 53 31 70 36 30 91 45 124 32 25 -10 42 0 54 31 4 11 90 48
113 49 11 1 30 -6 42 -14z m-1176 -66 c-5 -13 -10 -19 -10 -12 -1 15 10 45 15
40 3 -2 0 -15 -5 -28z m-180 -112 c4 -5 2 -19 -4 -31 -9 -19 -14 -21 -34 -12
-23 11 -27 23 -17 49 6 16 44 12 55 -6z m711 -23 c35 -6 36 -8 31 -39 -4 -26
0 -37 16 -51 28 -24 27 -31 -10 -50 -42 -21 -76 -11 -101 31 -11 19 -26 35
-34 35 -19 0 -18 12 4 49 18 32 30 35 94 25z m7113 -71 c111 -14 118 -17 127
-52 7 -26 5 -37 -8 -52 -9 -10 -22 -19 -28 -19 -6 -1 -28 -9 -49 -19 -50 -23
-79 -17 -96 20 -21 48 4 163 29 131 3 -4 14 -8 25 -9z m-7275 -17 c0 -7 -11
-21 -25 -30 -35 -23 -23 -48 20 -42 62 10 48 -38 -18 -63 -88 -34 -150 27
-101 98 29 40 124 69 124 37z m-184 -83 c19 -20 24 -36 22 -62 -4 -49 -37 -55
-69 -12 -27 37 -39 32 -39 -18 0 -55 -22 -70 -55 -37 -18 18 -25 36 -25 65 0
43 4 47 65 73 56 23 72 22 101 -9z m-197 -71 c27 -38 36 -79 22 -96 -16 -19
-116 -50 -136 -43 -8 4 -24 21 -35 39 -45 73 -9 118 44 55 17 -20 34 -37 39
-37 4 0 7 22 7 48 0 71 23 84 59 34z m7140 -10 c19 -2 37 2 41 8 5 8 13 9 21
4 8 -5 24 -7 36 -6 25 4 42 -21 44 -65 3 -59 -1 -70 -30 -83 -16 -6 -37 -20
-47 -31 -9 -10 -21 -16 -25 -13 -5 3 -9 1 -9 -3 0 -5 -13 -17 -30 -26 -16 -10
-30 -15 -30 -12 0 3 -10 -1 -22 -9 -12 -9 -30 -16 -39 -16 -9 0 -30 -7 -45
-15 -16 -8 -42 -15 -58 -15 -16 0 -37 -6 -45 -14 -21 -18 -77 -36 -111 -36
-15 0 -33 -7 -40 -15 -7 -9 -20 -14 -29 -12 -9 2 -29 -3 -45 -11 -20 -10 -43
-11 -80 -6 -78 12 -79 11 -104 -23 -12 -18 -30 -33 -38 -33 -8 0 -23 -14 -32
-30 -18 -32 -172 -120 -210 -120 -12 0 -24 -4 -27 -10 -3 -5 -14 -10 -23 -10
-10 0 -34 -9 -55 -20 -20 -11 -45 -20 -54 -20 -10 0 -45 -9 -79 -19 -61 -19
-141 -22 -197 -7 -19 6 -35 3 -52 -8 -13 -9 -29 -16 -36 -16 -6 0 -39 -28 -74
-62 -61 -59 -120 -91 -185 -102 -15 -2 -38 -10 -51 -17 -13 -7 -32 -14 -42
-16 -11 -2 -44 -18 -75 -36 -155 -90 -309 -151 -501 -196 -46 -11 -89 -25 -94
-30 -6 -6 -21 -11 -33 -11 -13 0 -73 -26 -135 -57 -97 -50 -121 -58 -179 -61
-65 -4 -68 -3 -89 26 -25 36 -21 85 7 75 10 -4 14 -3 10 2 -9 10 16 35 41 40
10 2 37 13 59 24 23 12 52 21 66 21 14 0 40 14 58 30 18 17 42 30 53 30 11 0
31 9 45 20 14 11 35 20 48 20 12 0 22 5 22 10 0 6 7 10 15 10 8 0 15 5 15 10
0 6 14 10 30 10 17 0 30 5 30 11 0 5 17 17 38 25 20 8 48 21 62 28 14 8 43 17
65 21 22 4 56 16 75 25 19 10 47 21 62 24 15 3 33 12 40 19 33 31 104 53 122
38 10 -8 20 -5 41 14 15 14 41 28 59 31 66 11 76 15 76 28 0 8 10 16 23 18 12
2 21 9 19 17 -2 11 7 12 45 6 26 -4 58 -7 71 -6 15 1 21 -3 16 -11 -5 -7 -3
-8 7 -2 22 14 62 12 85 -3 19 -12 26 -11 57 9 23 14 36 31 37 44 0 12 7 25 16
28 8 3 12 10 9 16 -3 5 1 10 9 10 10 0 13 6 10 15 -7 18 59 83 93 91 13 4 23
10 23 15 0 5 3 8 8 7 10 -3 85 13 97 20 5 4 19 8 29 9 10 2 39 12 64 23 24 11
49 20 55 20 6 0 18 7 28 16 20 18 47 22 196 29 68 3 114 1 118 -5 9 -15 35
-12 35 4 0 8 5 16 10 18 6 2 12 15 14 30 1 15 18 45 36 66 29 34 40 40 87 46
29 3 62 14 73 23 10 9 25 18 32 19 7 1 22 6 32 10 14 5 17 4 12 -5 -6 -9 -3
-9 13 1 12 7 21 16 21 21 0 4 4 6 10 2 5 -3 17 -2 27 3 10 5 42 17 72 26 29
10 72 31 94 47 22 16 43 26 46 22 3 -5 21 -9 40 -11z m-7365 -30 c6 -22 5 -40
-2 -55 -6 -12 -13 -40 -14 -62 -4 -56 -34 -55 -66 3 -13 23 -30 42 -38 42 -18
0 -18 -1 5 45 34 69 98 85 115 27z m4971 -242 c3 -5 -1 -10 -9 -10 -9 0 -16 5
-16 10 0 6 4 10 9 10 6 0 13 -4 16 -10z m-321 -112 c7 -13 16 -42 20 -64 7
-50 -13 -81 -58 -88 -16 -3 -36 -12 -46 -21 -9 -8 -22 -15 -29 -15 -7 0 -37
-11 -67 -25 -30 -14 -59 -25 -63 -25 -5 0 -22 -6 -38 -14 -75 -39 -223 -105
-263 -119 -25 -8 -90 -32 -145 -52 -55 -20 -125 -46 -155 -56 -30 -11 -64 -24
-75 -29 -26 -11 -133 -41 -160 -44 -11 -1 -29 -7 -40 -13 -11 -6 -44 -16 -72
-23 -29 -6 -53 -15 -53 -20 0 -4 -13 -10 -29 -13 -16 -3 -46 -18 -66 -32 -21
-14 -46 -25 -57 -25 -10 0 -30 -7 -44 -16 -13 -9 -57 -25 -97 -35 -40 -10 -91
-24 -114 -30 -52 -16 -88 -5 -111 33 -19 32 -5 73 30 87 76 31 88 36 88 41 0
3 8 6 18 7 9 0 59 17 111 36 52 20 111 39 132 42 21 4 49 14 61 24 37 28 104
59 142 67 20 3 53 17 73 31 20 14 46 29 57 34 12 5 28 13 36 18 8 5 53 19 100
32 47 12 105 33 130 45 25 12 74 32 109 44 35 11 76 27 92 35 15 8 41 15 56
15 16 0 39 7 51 16 12 8 26 13 31 9 5 -3 12 -1 16 5 4 6 11 8 16 5 5 -4 21 3
35 14 14 11 39 23 57 27 17 3 41 13 53 20 11 8 23 11 26 8 4 -3 30 6 60 20 56
27 148 65 160 65 4 1 14 -9 22 -21z m-8874 -431 c29 -40 31 -57 5 -57 -19 0
-78 78 -71 95 8 22 32 8 66 -38z m-58 -24 c21 -19 24 -53 5 -53 -8 0 -24 11
-37 25 -28 29 -48 19 -30 -15 9 -16 9 -25 1 -33 -8 -8 -19 -3 -40 17 -35 33
-56 28 -39 -10 10 -20 9 -27 -3 -35 -10 -6 -20 -1 -36 19 -13 15 -23 32 -23
39 0 14 115 61 154 62 16 1 38 -6 48 -16z m-227 -69 c0 -10 10 -23 23 -29 38
-17 27 -30 -24 -26 -12 1 -24 -5 -27 -13 -4 -9 -13 -16 -22 -16 -11 0 -14 6
-9 24 4 19 1 25 -21 30 -14 4 -23 11 -19 17 3 6 16 8 28 5 15 -4 26 1 34 15
15 24 37 20 37 -7z m-198 -66 c-1 -15 5 -26 21 -33 27 -12 24 -29 -6 -33 -13
-2 -32 7 -47 22 -14 14 -33 26 -41 26 -12 0 -12 4 -4 20 8 14 21 20 45 20 30
0 34 -3 32 -22z m103 -28 c0 -5 -9 -10 -21 -10 -11 0 -17 5 -14 10 3 6 13 10
21 10 8 0 14 -4 14 -10z m7300 -155 c8 -5 23 -19 33 -32 10 -13 27 -23 38 -23
35 0 20 -26 -28 -49 -27 -13 -93 -39 -148 -57 -55 -19 -108 -39 -117 -44 -10
-6 -26 -10 -36 -10 -10 0 -40 -11 -67 -24 -26 -14 -71 -30 -99 -36 -28 -6 -60
-15 -71 -19 -38 -16 -132 -41 -150 -41 -10 0 -26 -6 -34 -14 -9 -8 -37 -20
-63 -27 -42 -12 -49 -11 -67 5 -11 10 -23 32 -27 49 -5 26 -2 35 20 54 15 13
34 23 43 23 9 0 31 11 49 25 35 27 111 54 131 48 6 -2 14 1 18 6 3 6 16 11 28
11 12 0 36 9 52 20 17 11 36 20 44 20 7 0 42 14 77 31 52 24 132 56 189 73 6
2 21 7 35 13 14 6 31 12 39 15 19 6 92 -6 111 -17z m1380 -215 c0 -10 3 -25 6
-34 8 -21 -41 -45 -58 -28 -15 15 -28 15 -28 2 0 -33 -105 -85 -148 -73 -27 7
-78 -16 -92 -42 -11 -20 -163 -114 -204 -126 -12 -4 -50 -20 -86 -36 -36 -17
-78 -35 -95 -41 -16 -6 -53 -19 -81 -30 -28 -10 -81 -25 -118 -32 -36 -7 -69
-16 -72 -21 -3 -5 -17 -9 -31 -9 -13 0 -38 -8 -53 -17 -24 -14 -35 -15 -68 -5
-52 16 -58 35 -22 72 28 28 40 34 66 31 5 0 20 8 32 20 12 11 27 17 32 14 10
-6 41 7 62 28 16 16 75 48 143 77 28 11 63 28 78 35 16 8 35 15 43 15 8 0 22
4 32 9 30 15 85 33 131 42 25 5 47 13 50 18 4 4 27 9 53 10 27 0 62 10 80 21
85 51 185 93 222 92 24 -1 48 6 63 18 27 21 63 16 63 -10z m-2409 -170 c21
-22 43 -40 49 -40 5 0 10 -5 10 -10 0 -6 10 -14 23 -19 20 -8 16 -11 -38 -35
-33 -15 -96 -39 -140 -53 -44 -14 -90 -33 -102 -41 -13 -8 -40 -16 -60 -19
-21 -2 -63 -15 -93 -28 -30 -13 -80 -26 -110 -30 -30 -3 -74 -13 -97 -22 -38
-14 -44 -14 -64 1 -13 9 -19 16 -14 16 6 0 4 4 -2 8 -7 4 -16 22 -19 40 -6 28
-3 32 20 38 15 3 32 1 40 -5 16 -13 61 2 86 30 20 22 55 39 77 39 20 0 98 34
123 54 8 7 42 20 75 31 33 10 78 31 100 45 76 51 88 51 136 0z m1009 -363 c29
-24 25 -56 -12 -94 -18 -18 -35 -33 -39 -33 -3 0 -22 -6 -40 -14 -19 -8 -37
-15 -41 -16 -21 -4 -70 -21 -133 -45 -80 -31 -195 -65 -243 -72 -19 -3 -36
-11 -38 -18 -4 -8 -17 -10 -43 -5 -22 4 -55 1 -82 -6 -38 -11 -46 -11 -61 3
-15 13 -15 17 -3 29 7 8 18 14 24 14 6 0 15 9 21 20 6 11 17 20 25 20 7 0 22
11 32 23 13 17 32 25 68 29 27 4 51 11 53 16 2 6 9 9 16 6 7 -3 19 2 26 11 7
8 21 15 31 15 22 0 114 38 179 75 24 14 98 46 130 58 31 10 111 1 130 -16z
m-7388 -341 c11 -15 4 -30 -14 -34 -8 -2 -18 5 -22 15 -3 10 -9 24 -12 32 -5
10 -1 11 17 6 13 -4 27 -13 31 -19z m6425 -46 c16 -57 1 -81 -65 -104 -60 -22
-121 -46 -147 -57 -11 -5 -30 -11 -41 -13 -12 -3 -43 -11 -68 -20 -64 -22
-115 -21 -115 2 0 9 -1 24 -3 32 -2 8 1 16 5 17 4 1 22 13 38 27 17 15 39 26
49 26 10 0 30 14 43 30 14 17 31 30 37 30 6 0 21 7 35 16 13 8 29 14 37 13 24
-3 34 1 55 20 23 22 89 31 116 16 10 -5 21 -21 24 -35z m-6407 -229 c13 -25
13 -31 -3 -31 -14 0 -39 35 -30 44 11 11 22 6 33 -13z m-64 -39 c12 -7 14 -14
7 -26 -8 -14 -12 -13 -38 13 -24 26 -26 33 -15 47 13 14 15 14 21 -4 4 -11 15
-25 25 -30z m13491 -19 c18 -27 20 -83 4 -83 -22 0 -64 72 -55 94 9 24 31 19
51 -11z m-12899 -25 c14 -14 16 -28 2 -28 -5 0 -14 9 -20 20 -12 22 -1 27 18
8z m-74 -20 c10 -39 6 -44 -14 -19 -11 12 -17 27 -14 32 9 16 21 10 28 -13z
m-51 -51 c-3 -6 -11 -3 -19 8 -7 10 -11 22 -7 28 3 6 11 3 19 -8 7 -10 11 -22
7 -28z m-80 1 c4 -12 4 -25 1 -28 -8 -7 -34 31 -28 41 9 16 22 10 27 -13z
m-48 -28 c11 -17 -5 -32 -21 -19 -8 6 -14 15 -14 20 0 12 27 11 35 -1z m-60
-10 c3 -5 -1 -10 -9 -10 -8 0 -18 5 -21 10 -3 6 1 10 9 10 8 0 18 -4 21 -10z
m-55 -30 c21 -21 26 -40 12 -40 -5 0 -18 14 -30 30 -25 34 -13 41 18 10z
m-180 -77 c0 -14 -10 -16 -34 -7 -19 7 -21 25 -4 42 10 10 15 9 25 -5 7 -9 13
-23 13 -30z m57 32 c9 -25 -2 -27 -28 -6 l-24 20 23 1 c12 0 25 -7 29 -15z
m-117 -52 c26 -34 11 -54 -19 -24 -22 22 -28 51 -12 51 5 0 19 -12 31 -27z
m400 -119 c0 -8 -4 -14 -9 -14 -11 0 -22 26 -14 34 9 9 23 -3 23 -20z m-66
-31 c10 -25 -4 -30 -20 -9 -8 11 -14 23 -14 28 0 13 28 -3 34 -19z m-144 -22
c18 -35 11 -45 -15 -21 -14 13 -25 27 -25 32 0 16 29 8 40 -11z m80 -2 c0 -6
-4 -7 -10 -4 -5 3 -10 11 -10 16 0 6 5 7 10 4 6 -3 10 -11 10 -16z m-133 -45
c-9 -9 -28 6 -21 18 4 6 10 6 17 -1 6 -6 8 -13 4 -17z m-62 -35 c11 -17 -1
-21 -15 -4 -8 9 -8 15 -2 15 6 0 14 -5 17 -11z m613 -7 c6 -18 -15 -14 -22 4
-4 10 -1 14 6 12 6 -2 14 -10 16 -16z m-193 -62 c3 -5 1 -10 -4 -10 -6 0 -11
5 -11 10 0 6 2 10 4 10 3 0 8 -4 11 -10z m13807 -155 c-12 -26 -52 -36 -52
-12 0 15 20 46 20 32 0 -5 5 -2 11 8 17 30 36 5 21 -28z m-12824 23 c7 -7 12
-19 12 -27 0 -11 -4 -10 -20 4 -21 19 -26 35 -12 35 4 0 13 -5 20 -12z m-1413
-28 c10 -11 15 -23 12 -27 -8 -7 -47 25 -47 39 0 14 16 9 35 -12z m13185 -455
c0 -29 -4 -36 -25 -41 -54 -13 -77 29 -32 59 38 27 57 22 57 -18z m2070 -85
c0 -30 -29 -70 -52 -70 -15 0 -18 5 -13 23 8 24 44 67 57 67 4 0 8 -9 8 -20z
m-4482 -496 c12 -8 22 -21 22 -28 0 -8 7 -19 15 -26 18 -15 20 -66 3 -76 -16
-10 -86 -6 -109 7 -24 13 -49 66 -41 88 17 50 67 65 110 35z m6866 -32 c-6 -9
-19 -19 -28 -20 -16 -4 -16 -2 -1 28 13 24 20 29 28 21 8 -8 9 -16 1 -29z m46
-16 c0 -16 -28 -42 -36 -33 -7 6 18 47 28 47 5 0 8 -6 8 -14z m-9243 -128 c29
-32 34 -53 22 -88 -12 -34 -35 -50 -73 -50 -14 0 -28 -4 -31 -10 -9 -14 -98 0
-112 18 -18 22 -16 62 1 62 8 0 18 9 21 20 9 27 86 66 136 69 8 1 25 -9 36
-21z m2493 -198 c26 -7 39 -18 47 -39 13 -35 9 -41 -27 -41 -14 0 -31 -5 -38
-12 -9 -9 -16 -7 -32 7 -22 20 -27 64 -8 83 14 14 14 14 58 2z m-1289 -120
c19 -22 36 -52 39 -67 5 -23 1 -30 -22 -40 -28 -12 -42 -11 -83 8 -11 5 -32
13 -48 19 -35 12 -44 36 -26 68 12 21 60 47 95 51 6 0 26 -17 45 -39z m2748
-139 c17 -19 33 -43 36 -55 11 -47 11 -108 -1 -124 -11 -16 -14 -15 -39 8 -15
14 -35 37 -46 51 -25 36 -50 130 -37 146 16 20 55 8 87 -26z m-2623 -201 c17
0 58 -90 47 -101 -12 -12 -85 16 -105 40 -24 31 -3 78 30 66 8 -3 20 -5 28 -5z
m2741 -83 c51 -54 76 -102 80 -150 3 -46 -17 -59 -49 -31 -41 37 -109 224 -81
224 6 0 28 -19 50 -43z m2623 -50 c0 -31 -27 -67 -45 -61 -18 7 -15 42 5 66
20 25 40 22 40 -5z m-6691 -4 c20 -17 40 -70 44 -118 2 -17 -4 -20 -35 -19
-45 1 -92 37 -106 82 -9 28 -8 36 9 53 24 24 60 24 88 2z m3544 -40 c-1 -23
-6 -51 -12 -62 -11 -20 -11 -20 -61 1 -40 16 -50 25 -50 44 0 28 60 65 100 61
23 -2 25 -6 23 -44z m2414 -123 c12 -32 4 -53 -16 -41 -7 5 -10 14 -7 20 4 6
2 11 -3 11 -6 0 -11 6 -11 14 0 8 -5 16 -12 18 -6 2 -8 9 -4 16 10 17 40 -4
53 -38z m-5782 -190 c26 -16 33 -28 38 -65 7 -50 -4 -89 -27 -98 -24 -10 -84
4 -101 23 -9 9 -18 40 -22 69 -5 41 -2 55 12 71 23 25 59 25 100 0z m-1411
-151 c34 -16 42 -39 12 -39 -24 0 -61 32 -49 43 8 9 8 9 37 -4z m3581 -13 c0
-27 -51 -44 -72 -24 -13 13 -12 17 3 32 22 23 69 17 69 -8z m-3584 -87 c11 -5
17 -14 14 -20 -7 -11 -45 7 -45 21 0 13 7 13 31 -1z"/>
<path d="M5835 12223 c-42 -47 -28 -116 22 -107 37 7 44 21 37 74 -10 71 -19
76 -59 33z"/>
<path d="M13351 11956 c-8 -20 -8 -33 -2 -39 13 -13 24 13 19 45 -4 22 -5 22
-17 -6z"/>
<path d="M12740 11730 c-12 -8 -11 -10 7 -10 12 0 25 5 28 10 8 13 -15 13 -35
0z"/>
<path d="M11295 11260 c-3 -5 -2 -10 4 -10 5 0 13 5 16 10 3 6 2 10 -4 10 -5
0 -13 -4 -16 -10z"/>
<path d="M13261 11141 c-36 -36 -40 -101 -7 -101 20 0 57 54 59 87 3 35 -24
42 -52 14z"/>
<path d="M10236 10977 c-31 -46 -8 -97 28 -62 20 20 20 45 2 70 -13 18 -14 17
-30 -8z"/>
<path d="M13071 11073 c-36 -45 -39 -93 -7 -93 23 0 48 37 53 79 7 50 -14 56
-46 14z"/>
<path d="M5351 10868 c-10 -25 1 -44 18 -34 14 9 14 43 1 51 -6 3 -14 -4 -19
-17z"/>
<path d="M12875 11007 c-8 -13 -18 -37 -21 -55 -6 -28 -4 -32 15 -32 24 0 61
52 61 88 0 30 -35 30 -55 -1z"/>
<path d="M10022 10918 c-17 -17 -15 -75 2 -81 26 -10 48 16 44 53 -3 37 -24
50 -46 28z"/>
<path d="M4087 10473 c-13 -12 -7 -43 8 -43 9 0 15 9 15 25 0 24 -10 32 -23
18z"/>
<path d="M11695 10620 c-20 -23 -12 -25 33 -9 18 6 29 15 26 20 -9 16 -40 10
-59 -11z"/>
<path d="M13513 10405 c-3 -9 -3 -18 0 -22 10 -10 37 6 37 22 0 20 -29 20 -37
0z"/>
<path d="M10880 10348 c-34 -52 -34 -88 0 -88 25 0 47 29 55 73 7 34 5 37 -16
37 -14 0 -31 -10 -39 -22z"/>
<path d="M13188 10356 c-28 -21 -22 -35 10 -27 15 4 27 13 27 21 0 19 -17 22
-37 6z"/>
<path d="M10704 10300 c-22 -9 -39 -28 -32 -35 8 -8 78 19 75 29 -5 14 -19 16
-43 6z"/>
<path d="M10061 10074 c-24 -30 -26 -84 -4 -91 7 -3 24 7 38 21 20 20 25 35
23 59 -4 42 -29 46 -57 11z"/>
<path d="M12434 10102 c-20 -13 -35 -52 -29 -72 15 -47 81 0 73 52 -3 24 -25
34 -44 20z"/>
<path d="M9650 9887 c-31 -16 -39 -47 -12 -47 18 0 40 18 56 48 9 16 -12 15
-44 -1z"/>
<path d="M6662 9818 c-28 -28 -8 -82 28 -76 30 4 45 29 36 61 -7 29 -42 37
-64 15z"/>
<path d="M11468 9758 c-21 -26 -23 -51 -5 -66 15 -13 30 -5 46 25 28 55 -4 87
-41 41z"/>
<path d="M11296 9701 c-18 -19 -17 -20 10 -12 15 4 29 12 32 19 6 19 -23 14
-42 -7z"/>
<path d="M10896 9569 c-21 -16 -26 -28 -24 -53 4 -45 37 -42 63 6 18 34 18 39
4 53 -14 14 -18 14 -43 -6z"/>
<path d="M8383 9464 c-34 -17 -46 -54 -18 -54 18 0 65 43 65 60 0 14 -9 12
-47 -6z"/>
<path d="M10695 9495 c-28 -27 -32 -57 -10 -75 21 -17 65 29 65 70 0 37 -21
40 -55 5z"/>
<path d="M7727 9293 c-9 -11 -18 -34 -19 -53 -3 -31 0 -35 24 -38 33 -4 61 33
56 75 -4 34 -36 43 -61 16z"/>
<path d="M7949 9371 c-13 -10 -21 -23 -17 -27 10 -9 80 18 82 31 2 19 -40 16
-65 -4z"/>
<path d="M12012 9214 c-13 -23 -4 -54 14 -47 9 3 12 14 8 32 -5 21 -3 23 6 11
9 -12 11 -12 8 -1 -6 22 -25 24 -36 5z"/>
<path d="M10910 9205 c-7 -8 -10 -18 -7 -21 9 -10 48 7 44 19 -6 18 -23 19
-37 2z"/>
<path d="M7294 9146 c-21 -18 -24 -25 -13 -26 29 0 80 22 76 34 -7 21 -34 17
-63 -8z"/>
<path d="M9301 9021 c-22 -22 -28 -75 -10 -87 6 -3 23 2 37 13 20 15 27 29 27
54 0 41 -24 50 -54 20z"/>
<path d="M6850 8995 c-18 -19 -20 -25 -8 -25 30 0 78 22 78 36 0 23 -45 16
-70 -11z"/>
<path d="M9727 8792 c-10 -10 -17 -33 -17 -50 0 -25 4 -32 19 -32 35 0 74 61
56 89 -10 17 -40 13 -58 -7z"/>
<path d="M9524 8716 c-18 -29 -15 -70 6 -74 26 -5 50 21 57 61 5 35 4 37 -20
37 -17 0 -32 -9 -43 -24z"/>
<path d="M5970 8700 c-25 -25 -28 -88 -4 -97 44 -17 89 50 64 96 -14 26 -34
27 -60 1z"/>
<path d="M10326 8635 c-17 -26 -21 -61 -8 -69 27 -17 77 46 64 82 -7 20 -39
14 -56 -13z"/>
<path d="M4829 8311 c-13 -10 -20 -23 -16 -27 10 -10 89 18 88 31 -1 19 -47
16 -72 -4z"/>
<path d="M7931 8169 c-29 -27 -21 -34 23 -19 39 12 46 24 20 34 -20 8 -17 9
-43 -15z"/>
<path d="M8784 8106 c-27 -19 -36 -60 -18 -83 12 -17 14 -17 41 3 21 16 28 29
28 55 0 39 -18 48 -51 25z"/>
<path d="M8585 8026 c-22 -33 -16 -70 11 -74 27 -4 46 19 47 60 2 27 -2 34
-20 36 -14 2 -27 -5 -38 -22z"/>
<path d="M6399 7971 c-42 -23 -51 -51 -16 -51 22 0 44 17 61 47 11 21 -10 23
-45 4z"/>
<path d="M7107 7882 c-24 -27 -21 -35 10 -27 51 13 72 45 30 45 -13 0 -31 -8
-40 -18z"/>
<path d="M6695 7735 c-30 -29 -34 -79 -8 -89 10 -4 28 1 43 12 40 30 38 101
-3 102 -4 0 -19 -11 -32 -25z"/>
<path d="M5529 7719 c-15 -15 -18 -24 -11 -27 19 -6 83 19 79 31 -7 21 -45 19
-68 -4z"/>
<path d="M7586 7684 c-31 -31 -33 -94 -3 -94 44 0 79 89 41 104 -21 8 -20 8
-38 -10z"/>
<path d="M6276 7591 c-10 -11 -16 -24 -15 -29 5 -14 81 18 76 32 -6 19 -42 18
-61 -3z"/>
<path d="M5095 7566 c-28 -29 -33 -67 -9 -87 13 -11 20 -11 41 1 38 22 49 44
37 77 -13 37 -38 40 -69 9z"/>
<path d="M6070 7520 c-25 -25 -27 -85 -4 -94 45 -17 88 66 52 102 -17 17 -25
15 -48 -8z"/>
<path d="M5 5000 c-8 -13 5 -13 25 0 13 8 13 10 -2 10 -9 0 -20 -4 -23 -10z"/>
</g>
</svg>
